<?xml version="1.0" encoding="UTF-8"?>
<!-- Generator: Adobe Illustrator 25.4.1, SVG Export Plug-In . SVG Version: 6.00 Build 0)  -->
<svg xmlns="http://www.w3.org/2000/svg" xmlns:xlink="http://www.w3.org/1999/xlink" version="1.1" id="Capa_1" x="0px" y="0px" viewBox="0 0 512 512" style="enable-background:new 0 0 512 512;" xml:space="preserve" width="512" height="512">
<g>
	<g>
		<g>
			<g>
				<path style="fill:#FFFFFF;" d="M100.465,84.502c0,0,2.569-13.302-5.944-14.489s-3.96,18.499-0.381,13.6      c1.544-2.114-10.104-7.992-13.323-2.65S97.414,97.472,100.465,84.502z"/>
			</g>
			<g>
				<path style="fill:#241726;" d="M93.083,91.533h-0.002c-5.315,0-11.068-3.629-12.908-6.885c-1.096-1.937-0.719-3.351-0.21-4.196      c1.506-2.5,4.874-3.27,8.842-2.143c-0.338-2.699-0.107-5.756,1.414-7.657c1.045-1.306,2.531-1.888,4.439-1.624      c2.156,0.301,3.868,1.315,5.084,3.017c3.223,4.507,1.764,12.315,1.7,12.646C100.402,89.118,97.435,91.533,93.083,91.533z       M85.347,79.775c-1.76,0-2.998,0.573-3.678,1.702c-0.344,0.569-0.264,1.307,0.235,2.193c1.568,2.772,6.679,5.873,11.177,5.873      h0.002c3.433,0,5.591-1.772,6.415-5.269c0.004-0.033,1.352-7.266-1.375-11.076c-0.9-1.255-2.122-1.976-3.74-2.201      c-1.144-0.155-1.997,0.132-2.611,0.898c-1.241,1.552-1.315,4.639-0.832,7.188c1.879,0.835,3.854,2.151,4.259,3.567      c0.157,0.558,0.068,1.107-0.256,1.55c-0.719,0.985-1.49,1.193-2.011,1.193c-2.16,0-3.279-3.246-3.703-4.859      C87.884,80.043,86.521,79.775,85.347,79.775z M91.725,81.739c0.497,1.15,1.01,1.665,1.206,1.665      c0.025,0,0.179-0.068,0.406-0.377C93.264,82.926,92.755,82.38,91.725,81.739z"/>
			</g>
		</g>
		<g>
			<g>
				<path style="fill:#FFFFFF;" d="M107.802,87.839c0,0,13.195-3.071,14.703,5.391s-18.335,4.658-13.576,0.896      c2.054-1.623,8.369,9.794,3.152,13.213C106.865,110.757,94.957,91.379,107.802,87.839z"/>
			</g>
			<g>
				<path style="fill:#241726;" d="M110.71,108.736c-3.849,0-8.758-6.207-9.553-12.074c-0.664-4.915,1.661-8.48,6.38-9.782      c0.138-0.033,2.518-0.579,5.416-0.579c6.015,0,9.755,2.399,10.53,6.755c0.274,1.541-0.043,2.908-0.921,3.956      c-1.445,1.725-4.521,2.551-8.127,2.244c1.09,3.314,1.08,7.021-1.809,8.915C112.055,108.546,111.41,108.736,110.71,108.736z       M112.954,88.29c-2.673,0-4.906,0.513-4.927,0.519c-4.713,1.3-5.269,4.843-4.898,7.585c0.777,5.751,6.106,11.624,8.406,10.114      c2.201-1.442,1.76-4.886,0.655-7.59c-1.644-0.361-4.474-1.243-4.935-3.103c-0.126-0.511-0.157-1.51,1.055-2.469      c0.309-0.243,0.68-0.371,1.074-0.371c1.587,0,3.163,2.075,4.193,4.177c0.775,0.117,1.576,0.179,2.339,0.179      c2.405,0,4.272-0.583,5.121-1.595c0.501-0.598,0.661-1.36,0.488-2.329C120.921,90.012,118.036,88.29,112.954,88.29z       M109.372,94.964c-0.122,0.177-0.192,0.34-0.185,0.371c0.058,0.241,0.608,0.703,1.694,1.129      C110.191,95.467,109.589,94.995,109.372,94.964z"/>
			</g>
		</g>
		<g>
			<path style="fill:#F5D450;" d="M95.179,93.37c0,0-7.718-1.093-10.65,4.79c-2.932,5.883-3.264,13.14,1.363,14.222     c4.627,1.082,11.963-1.177,13.67-7.671C101.269,98.218,97.496,93.421,95.179,93.37z"/>
		</g>
		<g>
			<g>
				<path style="fill:#FFFFFF;" d="M88.432,94.379c0,0,9.349,7.618,11.536,7.742"/>
			</g>
			<g>
				<path style="fill:#241726;" d="M99.969,103.116c-0.017,0-0.037,0-0.056-0.002c-2.329-0.132-9.856-6.129-12.107-7.963      c-0.427-0.348-0.492-0.973-0.144-1.399c0.348-0.431,0.973-0.488,1.399-0.144c4.377,3.565,9.813,7.454,10.965,7.521      c0.548,0.031,0.968,0.501,0.936,1.049C100.932,102.706,100.493,103.116,99.969,103.116z"/>
			</g>
		</g>
		<g>
			<g>
				<path style="fill:#FFFFFF;" d="M84.458,98.78c0,0,11.181,8.559,13.964,8.694"/>
			</g>
			<g>
				<path style="fill:#241726;" d="M98.422,108.468c-0.016,0-0.031,0-0.049-0.002c-2.943-0.142-12.613-7.435-14.52-8.896      c-0.437-0.334-0.519-0.96-0.187-1.395c0.336-0.439,0.96-0.519,1.395-0.187c4.542,3.478,11.703,8.408,13.409,8.492      c0.548,0.025,0.971,0.492,0.944,1.041C99.39,108.054,98.951,108.468,98.422,108.468z"/>
			</g>
		</g>
		<g>
			<g>
				<path style="fill:#FFFFFF;" d="M103.7,83.917c0,0,5.28-6.041,0.97-13.307"/>
			</g>
			<g>
				<path style="fill:#241726;" d="M103.701,84.912c-0.233,0-0.464-0.082-0.653-0.245c-0.414-0.359-0.458-0.987-0.099-1.403      c0.194-0.225,4.742-5.611,0.866-12.146c-0.282-0.472-0.124-1.082,0.348-1.362c0.47-0.282,1.084-0.124,1.362,0.348      c4.624,7.794-1.02,14.402-1.078,14.468C104.25,84.797,103.976,84.912,103.701,84.912z"/>
			</g>
		</g>
		<g>
			<g>
				<path style="fill:#FFFFFF;" d="M83.583,104.107c0,0,7.667,6.886,11.025,6.871"/>
			</g>
			<g>
				<path style="fill:#241726;" d="M94.599,111.973c-3.641,0-10.868-6.396-11.68-7.126c-0.408-0.367-0.443-0.997-0.076-1.405      c0.369-0.408,0.997-0.441,1.405-0.076c2.852,2.561,8.179,6.617,10.349,6.617c0.002,0,0.004,0,0.008,0c0,0,0.002,0,0.004,0      c0.548,0,0.993,0.443,0.995,0.991c0.002,0.548-0.441,0.997-0.991,0.999C94.608,111.973,94.603,111.973,94.599,111.973z"/>
			</g>
		</g>
		<g>
			<g>
				<path style="fill:#FFFFFF;" d="M117.724,80.097c0,0-7.088-2.607-12.484,5.644"/>
			</g>
			<g>
				<path style="fill:#241726;" d="M105.241,86.736c-0.188,0-0.377-0.052-0.544-0.161c-0.46-0.301-0.589-0.919-0.289-1.377      c5.762-8.809,13.58-6.06,13.66-6.034c0.515,0.19,0.779,0.762,0.591,1.278c-0.19,0.515-0.756,0.781-1.274,0.591l0,0      c-0.258-0.091-6.442-2.193-11.309,5.253C105.882,86.577,105.566,86.736,105.241,86.736z"/>
			</g>
		</g>
	</g>
	<g>
		<g>
			<path style="fill:#F5D450;" d="M151.46,247.795c0,0,272.26,202.176,266.132,207.025s-48.708,61.959-140.948,2.33     c-38.152-24.663-126.404-100.658-149.102-121.145C94.295,305.995,31.843,176.367,151.46,247.795z"/>
		</g>
		<g>
			<g>
				<path style="fill:#E77C92;" d="M315.906,62.765c0,0-20.75-11.115-31.499-7.266c-12.033,4.309-18.02,45.565-12.989,53.674      c5.031,8.109,26.952,1.81,31.11,6.25c4.158,4.44,1.929,24.61-3.984,26.616c-12.988,4.407-27.575,3.069-35.685,8.099      c-8.109,5.031,13.211,45.065,13.211,45.065s103.271-7.55,105.201-9.87c1.93-2.32-1.547-31.822-7.622-42.157      c-5.079-8.641-32.216-0.791-40.575-4.309c-8.359-3.518-4.261-11.394,0.249-43.952S315.906,62.765,315.906,62.765z"/>
			</g>
			<g>
				<path style="fill:#F5D450;" d="M286.793,56.867c0,0-1.731,8.373,10.379,11.904c12.11,3.531,13.801-13.053,25.532-1.988      s2.494,15.485,6.527,24.401c4.033,8.915,3.14-16.36,9.685-7.318s-1.724,16.23-6.421,19.519      c-4.698,3.289,20.287,3.086,21.165-22.352s-9.253-39.066-31.989-46.622c-29.929-9.946-44.983,11.435-46.482,26.216      S283.377,54.681,286.793,56.867z"/>
			</g>
			<g>
				<path style="fill:#F5D450;" d="M330.285,71.4c0,0-3.591,18.577-15.01,30.34c-11.42,11.763-16.046-11.383-27.989-9.215      s-12.645,10.09-16.703,8.677s-0.914,21.155,7.431,26.46c8.344,5.305,37.284-1.692,45.372-7.933      c4.661-3.596,11.58-36.271,13.155-38.558C338.116,78.884,330.285,71.4,330.285,71.4z"/>
			</g>
			<g>
				<path style="fill:#E77C92;" d="M267.1,237.375c0,0-64.824,6.053-77.189,13.056c-12.365,7.003-2.98,78.355-8.479,81.161      c-5.498,2.806-24.941-11.7-28.837-2.869c-2.202,4.992,16.777,26.088,37.514,30.059c20.737,3.971,27.688-74.072,35.981-72.76      c8.292,1.312,79.276-11.002,79.401,4.18s-39.618,50.015-35.398,59.643c4.22,9.627,47.008,59.662,34.713,67.177      c-18.026,11.018-29.882,16.981-16.057,19.628c13.825,2.647,24.17,1.872,43.436-5.187s-21.959-68.834-17.92-81.29      c4.039-12.456,52.411-67.891,63.17-102.487s8.344-97.551-12.427-105.662c-20.771-8.111-88.434-11.697-96.579,4.933      C260.283,163.586,286.264,217.894,267.1,237.375z"/>
			</g>
			<g>
				<path style="fill:#E77C92;" d="M328.008,135.971c0,0,97.438-8.764,100.13-17.068s-12.105-77.024-19.04-81.108      c-6.935-4.084-20.215-3.457-17.678-9.69c1.624-3.989,13.653,2.101,16.547-1.947c10.235-14.318,25.268-11.595,26.799-14.195      c2.201-3.738,10.021-19.241,11.064-7.855c0.284,3.103-4.032,13.232-1.83,29.26c1.515,11.024,17.273,65.422,18.913,97.155      c1.641,31.733-83.136,43.66-87.962,48.566C370.125,183.994,328.008,135.971,328.008,135.971z"/>
			</g>
			<g>
				<path style="fill:#E77C92;" d="M274.598,141.901c0,0-53.919,32.883-69.225,37.627c-15.306,4.744-48.177-33.127-57.633-38.935      c-9.455-5.808-23.579-14.203-23.051-6.262c0.349,5.256,11.202,8.966,11.202,8.966s-14.297-7.647-16.614-4.077      c-1.767,2.723,10.273,10.894,10.273,10.894s-10.756-6.812-13.556-3.031s11.906,7.911,23.33,19.905      c11.424,11.994,17.981,37.632,46.028,43.988c28.047,6.356,102.208-29.162,102.957-38.132S274.598,141.901,274.598,141.901z"/>
			</g>
			<g>
				<path style="fill:#E5554A;" d="M272.415,228.301c0,0,79.6,40.766,91.69,47.019c7.445,3.851-39.665,53.373-40.247,66.491      c-0.583,13.117-40.806-10.708-41.553-17.603s12.194-37.12,9.423-38.478c-2.772-1.358-52.776,6.566-55.57,2.448      c-2.794-4.118-13.521-47.811-8.018-49.926C233.643,236.136,264.151,230.439,272.415,228.301z"/>
			</g>
			<g>
				<path style="fill:#241726;" d="M289.927,436.043c-0.212,0-0.424-0.066-0.604-0.204c-0.437-0.334-0.519-0.958-0.187-1.395      c3.868-5.061,15.853-4.183,16.366-4.138c0.548,0.043,0.956,0.521,0.913,1.069c-0.043,0.546-0.492,0.946-1.069,0.913      c-3.171-0.249-11.964-0.124-14.629,3.365C290.522,435.909,290.226,436.043,289.927,436.043z"/>
			</g>
			<g>
				<path style="fill:#241726;" d="M288.311,431.512c-0.307,0-0.61-0.142-0.804-0.41c-0.323-0.445-0.225-1.067,0.22-1.389      c3.728-2.708,13.382-4.845,13.79-4.935c0.542-0.117,1.069,0.223,1.185,0.758c0.119,0.538-0.221,1.069-0.758,1.185      c-0.097,0.021-9.656,2.137-13.048,4.6C288.719,431.45,288.515,431.512,288.311,431.512z"/>
			</g>
			<g>
				<path style="fill:#241726;" d="M166.586,333.342c-0.148,0-0.297-0.033-0.437-0.101c-0.052-0.025-5.288-2.596-9.442-5.146      c-0.468-0.288-0.614-0.9-0.326-1.368c0.286-0.47,0.898-0.618,1.368-0.326c4.072,2.498,9.224,5.028,9.275,5.053      c0.493,0.243,0.697,0.837,0.457,1.331C167.307,333.138,166.953,333.342,166.586,333.342z"/>
			</g>
			<g>
				<path style="fill:#241726;" d="M163.927,340.484c-0.305,0-0.604-0.14-0.8-0.404c-2.401-3.252-6.992-8.531-9.086-8.844      c-0.542-0.08-0.917-0.587-0.835-1.131c0.08-0.542,0.585-0.917,1.131-0.835c3.513,0.523,9.273,8.113,10.392,9.628      c0.326,0.441,0.233,1.065-0.21,1.391C164.341,340.42,164.133,340.484,163.927,340.484z"/>
			</g>
			<g>
				<path style="fill:#241726;" d="M191.327,273.963c-0.051,0-0.099-0.002-0.146-0.006c-2.401-0.212-3.829-4.045-4.635-12.43      c-0.052-0.548,0.35-1.034,0.896-1.086c0.546-0.027,1.034,0.348,1.086,0.896c0.993,10.359,2.753,10.631,2.827,10.637      c0.016,0.002,0.029,0.002,0.045,0.002c1.696,0,5.442-8.183,8.063-17.644c0.144-0.527,0.69-0.845,1.224-0.692      c0.528,0.146,0.839,0.694,0.692,1.224C196.658,271.909,192.873,273.963,191.327,273.963z"/>
			</g>
			<g>
				<path style="fill:#241726;" d="M284.051,363.445c-0.35,0-0.725-0.027-1.123-0.084c-0.544-0.078-0.923-0.581-0.845-1.125      c0.076-0.542,0.571-0.903,1.125-0.845c0.832,0.115,1.912,0.132,2.277-0.478c1.403-2.351-3.853-11.391-8.033-17.06      c-0.326-0.443-0.231-1.065,0.21-1.391c0.443-0.324,1.065-0.233,1.391,0.21c1.813,2.458,10.722,14.932,8.14,19.261      C286.592,362.94,285.539,363.445,284.051,363.445z"/>
			</g>
			<g>
				<path style="fill:#241726;" d="M296.868,270.558c-0.546,0-0.991-0.437-0.995-0.983c-0.012-1.529,1.912-4.26,5.314-8.956      c2.423-3.345,5.152-7.113,5.846-9.137c-2.322,0.235-10.575,4.49-17.501,8.651c-0.47,0.28-1.08,0.134-1.366-0.34      c-0.284-0.472-0.13-1.082,0.34-1.366c7.958-4.781,17.885-10.145,20.022-8.587c0.247,0.183,0.795,0.717,0.544,1.752      c-0.554,2.294-3.462,6.31-6.275,10.194c-2.083,2.875-4.935,6.811-4.935,7.773c0,0.548-0.443,0.997-0.991,0.999      C296.87,270.558,296.87,270.558,296.868,270.558z"/>
			</g>
			<g>
				<path style="fill:#241726;" d="M327.748,249.087c-0.15,0-0.299-0.033-0.441-0.103c-0.492-0.243-0.694-0.839-0.451-1.333      c6.3-12.745,2.164-23.032-2.415-29.418c-6.592-9.191-16.069-13.741-17.631-13.495c-7.324,0.975-14.788,21.361-17.046,29.134      c-0.153,0.526-0.699,0.83-1.234,0.678c-0.526-0.153-0.832-0.705-0.678-1.234c0.348-1.191,8.597-29.206,18.693-30.552      c2.924-0.363,13.12,5.393,19.511,14.309c4.898,6.829,9.32,17.829,2.582,31.46C328.467,248.883,328.113,249.087,327.748,249.087z      "/>
			</g>
			<g>
				<path style="fill:#241726;" d="M332.861,203.579c-23.644,0.002-52.51-6.458-59.086-10.639c-4.031-2.561-5.176-9.786-3.4-21.474      c1.284-8.461,3.691-16.335,3.717-16.415c0.159-0.526,0.707-0.826,1.243-0.657c0.525,0.161,0.818,0.717,0.657,1.243      c-2.599,8.459-7.878,31.347-1.148,35.623c9.184,5.836,66.142,16.547,83.872,5.51c0.47-0.284,1.082-0.144,1.372,0.319      c0.289,0.468,0.148,1.08-0.319,1.372C353.808,202.17,343.902,203.579,332.861,203.579z"/>
			</g>
			<g>
				<path style="fill:#241726;" d="M306.477,243.05c-0.107,0-0.218-0.017-0.324-0.054c-0.519-0.179-0.795-0.746-0.616-1.265      c0.054-0.159,5.442-16.01,2.821-29.532c-0.103-0.538,0.249-1.061,0.789-1.166c0.513-0.099,1.059,0.249,1.166,0.789      c2.724,14.052-2.664,29.892-2.895,30.558C307.275,242.792,306.889,243.05,306.477,243.05z"/>
			</g>
			<g>
				<path style="fill:#241726;" d="M314.821,187.598c-0.435,0-0.835-0.288-0.958-0.729c-3.746-13.463-0.969-36.173-0.849-37.132      c0.068-0.55,0.598-0.946,1.109-0.865c0.546,0.068,0.933,0.565,0.865,1.109c-0.029,0.231-2.846,23.276,0.791,36.355      c0.148,0.528-0.161,1.078-0.692,1.224C314.998,187.586,314.908,187.598,314.821,187.598z"/>
			</g>
			<g>
				<path style="fill:#241726;" d="M288.393,97.717c-0.124,0-0.253-0.023-0.375-0.074c-0.705-0.288-6.93-2.836-8.41-4.002      c-0.315-0.247-0.493-0.614-0.501-1.032c-0.049-2.073,6.37-7.936,10.202-11.245c0.416-0.359,1.043-0.315,1.403,0.101      c0.359,0.416,0.315,1.045-0.101,1.403c-4.084,3.53-8.595,7.932-9.401,9.459c1.42,0.865,5.246,2.531,7.559,3.474      c0.509,0.206,0.754,0.787,0.546,1.296C289.157,97.484,288.786,97.717,288.393,97.717z"/>
			</g>
			<g>
				<path style="fill:#241726;" d="M288.624,112.111c-3.26,0-5.56-7.225-6.194-9.463c-0.15-0.528,0.159-1.078,0.688-1.228      c0.526-0.148,1.078,0.159,1.228,0.688c1.203,4.249,3.225,8.014,4.29,8.014c0.179-0.01,1.785-0.344,3.307-9.114      c0.093-0.542,0.614-0.921,1.148-0.81c0.542,0.093,0.905,0.608,0.81,1.148c-1.269,7.324-2.86,10.643-5.162,10.763      C288.702,112.111,288.663,112.111,288.624,112.111z"/>
			</g>
			<g>
				<path style="fill:#241726;" d="M303.743,86.893c-0.493,0-0.962-0.122-1.391-0.404c-2.098-1.374-0.12-6.819,1.247-9.943      c0.221-0.503,0.812-0.73,1.309-0.513c0.503,0.22,0.732,0.806,0.513,1.309c-1.438,3.289-2.359,6.876-1.931,7.526      c0.977,0.633,4.515-2.38,7.002-5.512c0.344-0.433,0.971-0.501,1.397-0.161c0.431,0.342,0.503,0.968,0.161,1.397      C310.759,82.219,306.78,86.893,303.743,86.893z"/>
			</g>
			<g>
				<path style="fill:#241726;" d="M277.129,83.237c-0.435,0-0.837-0.163-1.16-0.478c-1.626-1.591-0.525-7.917,0.025-10.563      c0.111-0.54,0.645-0.894,1.175-0.771c0.538,0.111,0.884,0.637,0.771,1.175c-0.781,3.769-1.065,7.61-0.659,8.593      c1.504-0.596,4.292-4.447,5.863-7.113c0.278-0.474,0.888-0.628,1.362-0.352c0.472,0.278,0.631,0.888,0.352,1.362      c-0.729,1.238-4.509,7.451-7.307,8.098C277.409,83.222,277.269,83.237,277.129,83.237z"/>
			</g>
			<g>
				
					<ellipse transform="matrix(1 -0.0082 0.0082 1 -0.3241 2.8628)" style="fill:#F5D450;" cx="348.84" cy="40.937" rx="12.349" ry="12.629"/>
			</g>
			<g>
				<path style="fill:#E77C92;" d="M333.459,84.754c0,0,3.888-7.289,6.97-5.67c10.789,5.664,1.81,29.642-10.575,25.253      C329.853,104.337,330.698,90.39,333.459,84.754z"/>
			</g>
			<g>
				<path style="fill:#241726;" d="M296.203,57.239c-0.056,0-0.115-0.004-0.171-0.016c-0.542-0.093-0.905-0.608-0.81-1.148      c0.058-0.344,1.519-8.444,6.984-11.823c2.533-1.564,5.484-1.856,8.777-0.868c2.053,0.618,3.973,1.253,5.76,1.845      c9.172,3.035,13.327,4.172,15.806-0.688c0.249-0.492,0.855-0.681,1.337-0.434c0.49,0.249,0.686,0.848,0.435,1.338      c-3.355,6.587-9.584,4.526-18.204,1.673c-1.77-0.587-3.672-1.216-5.706-1.827c-2.728-0.822-5.135-0.597-7.159,0.655      c-4.713,2.913-6.06,10.395-6.073,10.469C297.097,56.897,296.677,57.239,296.203,57.239z"/>
			</g>
			<g>
				<path style="fill:#241726;" d="M303.275,64.196c-0.177,0-0.356-0.047-0.517-0.146c-0.47-0.286-0.618-0.898-0.332-1.366      c5.65-9.285,13.083-7.493,19.065-6.048c3.61,0.872,7.017,1.692,9.57,0.15c6.877-4.152,7.021-8.433,7.021-8.475      c0.008-0.544,0.451-0.986,0.995-0.986c0.002,0,0.002,0,0.004,0c0.544,0.002,0.987,0.436,0.991,0.981      c0.002,0.218-0.049,5.393-7.981,10.182c-3.26,1.97-7.05,1.053-11.066,0.082c-6.172-1.49-12.003-2.897-16.9,5.148      C303.937,64.027,303.609,64.196,303.275,64.196z"/>
			</g>
			<g>
				<path style="fill:#241726;" d="M333.103,73.776c-0.387,0-0.754-0.227-0.915-0.606c-0.214-0.505,0.021-1.09,0.526-1.304      c0.495-0.212,12.123-5.306,10.202-17.26c-0.085-0.542,0.284-1.053,0.826-1.14c0.534-0.082,1.053,0.282,1.14,0.826      c2.168,13.508-11.257,19.348-11.392,19.406C333.363,73.751,333.233,73.776,333.103,73.776z"/>
			</g>
			<g>
				<path style="fill:#241726;" d="M286.614,51.703c-0.093,0-0.188-0.013-0.282-0.041c-0.527-0.155-0.828-0.706-0.672-1.233      c0.037-0.127,3.911-12.748,19.243-14.612c15.082-1.829,25.291,5.281,25.719,5.585c0.449,0.318,0.554,0.937,0.237,1.385      c-0.317,0.449-0.934,0.557-1.387,0.238c-0.099-0.07-10.062-6.969-24.328-5.232c-13.998,1.701-17.436,12.729-17.576,13.197      C287.439,51.423,287.043,51.703,286.614,51.703z"/>
			</g>
			<g>
				<path style="fill:#241726;" d="M341.847,45.075c-0.449,0-0.855-0.305-0.966-0.76c-0.041-0.175-1.012-4.325,1.138-7.51      c1.22-1.808,3.167-2.918,5.782-3.301c0.528-0.094,1.047,0.295,1.129,0.84c0.08,0.543-0.297,1.048-0.841,1.128      c-2.034,0.298-3.518,1.118-4.414,2.437c-1.661,2.448-0.866,5.905-0.859,5.939c0.126,0.534-0.202,1.07-0.736,1.199      C342.002,45.066,341.925,45.075,341.847,45.075z"/>
			</g>
			<g>
				<path style="fill:#241726;" d="M345.245,48.417c-0.544,0-0.987-0.438-0.993-0.983c-0.006-0.549,0.433-0.999,0.981-1.006      c0.35-0.005,8.548-0.24,8.467-10.302c-0.004-0.549,0.437-0.998,0.987-1.002c0.55-0.027,0.999,0.438,1.002,0.987      c0.099,12.08-10.332,12.306-10.437,12.307C345.251,48.417,345.247,48.417,345.245,48.417z"/>
			</g>
			<g>
				<path style="fill:#241726;" d="M382.738,182.838c-0.4,0-0.777-0.243-0.929-0.637c-3.497-9.096-1.197-24.277-1.098-24.92      c0.084-0.54,0.602-0.905,1.135-0.83c0.544,0.084,0.915,0.593,0.832,1.135c-0.023,0.153-2.318,15.303,0.989,23.9      c0.196,0.513-0.058,1.088-0.571,1.286C382.977,182.816,382.857,182.838,382.738,182.838z"/>
			</g>
			<g>
				<path style="fill:#241726;" d="M421.563,41.068c-0.262,0-0.532-0.035-0.806-0.107c-4.682-1.226-10.928-13.975-11.624-15.425      c-0.239-0.495-0.031-1.09,0.464-1.328c0.497-0.236,1.09-0.03,1.327,0.465c2.479,5.156,7.478,13.614,10.336,14.363      c0.392,0.101,0.595,0.009,0.74-0.097c1.074-0.751,1.014-2.679,0.416-4.94c-2.178-3.749-3.757-8.383-4.02-9.176      c-0.159-0.482,0.07-1.006,0.53-1.217c0.462-0.208,1.008-0.042,1.269,0.396c0.462,0.778,2.957,5.08,4.066,9.216      c1.107,1.891,2.263,3.34,3.289,3.695c0.344,0.121,0.624,0.086,0.927-0.114c1.727-1.138,1.193-5.998-0.111-11.018      c-0.958-2.65-1.752-5.243-2.267-7.01c-0.148-0.511,0.132-1.048,0.635-1.22c0.507-0.169,1.053,0.085,1.247,0.581      c0.427,1.096,1.478,3.905,2.331,7.123c1.857,5.071,3.701,8.755,4.632,8.981c1.842-2.678,0.441-14.001-0.882-20.529      c-0.109-0.538,0.239-1.063,0.777-1.172c0.544-0.101,1.065,0.239,1.173,0.778c0.367,1.816,3.507,17.857,0.523,21.995      c-0.682,0.947-1.498,0.961-1.931,0.889c-0.997-0.172-2.038-1.39-3.048-3.142c0.014,2.416-0.511,4.434-1.984,5.405      c-0.824,0.541-1.749,0.654-2.675,0.332c-0.725-0.252-1.438-0.787-2.123-1.509c-0.097,1.38-0.577,2.546-1.634,3.284      C422.669,40.901,422.133,41.068,421.563,41.068z"/>
			</g>
			<g>
				<path style="fill:#241726;" d="M146.382,157.438c-0.262,0-0.525-0.103-0.721-0.309c-3.264-3.425-2.978-5.315-2.359-7.103      c0.272-0.783,0.367-1.123,0.021-1.721c-0.408-0.703-1.638-1.811-2.827-2.883c-2.446-2.203-4.558-4.105-3.973-5.836      c0.476-1.409,2.411-1.568,3.048-1.62c6.996-0.577,12.222,6.953,12.442,7.274c0.313,0.453,0.2,1.07-0.253,1.383      c-0.451,0.309-1.07,0.202-1.383-0.253c-0.049-0.068-4.787-6.885-10.643-6.423c-1.119,0.093-1.354,0.328-1.356,0.33      c0.033,0.591,2.256,2.592,3.45,3.666c1.364,1.23,2.652,2.39,3.215,3.363c0.818,1.41,0.441,2.498,0.138,3.371      c-0.402,1.156-0.779,2.248,1.919,5.08c0.379,0.396,0.363,1.028-0.035,1.407C146.875,157.347,146.628,157.438,146.382,157.438z"/>
			</g>
		</g>
		<g>
			<path style="fill:#241726;" d="M140.002,161.456c-0.2,0-0.402-0.06-0.579-0.185c-1.383-0.989-5.341-3.678-7.015-4.235     c-0.521-0.175-0.802-0.738-0.629-1.259c0.175-0.523,0.742-0.8,1.259-0.629c2.298,0.767,7.33,4.352,7.544,4.503     c0.447,0.321,0.55,0.942,0.231,1.389C140.617,161.31,140.31,161.456,140.002,161.456z"/>
		</g>
		<g>
			<path style="fill:#241726;" d="M143.157,155.145c-0.255,0-0.509-0.097-0.703-0.291c-0.041-0.041-4.022-4.002-6.718-5.125     c-0.507-0.212-0.746-0.795-0.536-1.302c0.212-0.509,0.798-0.74,1.302-0.536c3.06,1.276,7.186,5.382,7.359,5.556     c0.389,0.389,0.389,1.018,0,1.407C143.666,155.048,143.411,155.145,143.157,155.145z"/>
		</g>
		<g>
			<path style="fill:#241726;" d="M153.189,262.335c-0.206,0-0.412-0.062-0.589-0.192c-19.01-13.941-51.06-20.473-51.381-20.537     c-0.54-0.107-0.89-0.631-0.781-1.17c0.109-0.542,0.655-0.894,1.17-0.781c0.326,0.064,32.8,6.679,52.17,20.883     c0.443,0.324,0.538,0.948,0.214,1.391C153.797,262.195,153.494,262.335,153.189,262.335z"/>
		</g>
		<g>
			<path style="fill:#241726;" d="M175.193,278.514c-0.255,0-0.509-0.097-0.703-0.291c-2.481-2.481-12.667-8.857-12.768-8.921     c-0.466-0.291-0.608-0.905-0.317-1.37c0.293-0.468,0.909-0.606,1.37-0.317c0.427,0.266,10.481,6.561,13.122,9.201     c0.389,0.389,0.389,1.018,0,1.407C175.702,278.417,175.448,278.514,175.193,278.514z"/>
		</g>
		<g>
			<path style="fill:#241726;" d="M379.053,436.425c-0.371,0-0.729-0.21-0.9-0.569c-5.644-11.915-34.323-31.766-34.611-31.965     c-0.453-0.313-0.567-0.933-0.256-1.383c0.313-0.458,0.936-0.565,1.383-0.256c1.199,0.826,29.412,20.358,35.283,32.753     c0.235,0.495,0.023,1.09-0.474,1.325C379.341,436.394,379.197,436.425,379.053,436.425z"/>
		</g>
	</g>
	<g>
		<g>
			<path d="M114.207,203.218h-0.006c-0.55-0.004-0.993-0.451-0.989-1.001l0.099-16.741c0.004-0.548,0.449-0.989,0.995-0.989h0.006     c0.55,0.004,0.993,0.451,0.989,1.001l-0.099,16.741C115.198,202.777,114.753,203.218,114.207,203.218z"/>
		</g>
		<g>
			<path d="M107.458,199.563c-0.313,0-0.622-0.148-0.816-0.425c-0.315-0.451-0.204-1.07,0.247-1.385l13.825-9.638     c0.445-0.311,1.069-0.206,1.385,0.247c0.315,0.451,0.204,1.07-0.247,1.385l-13.825,9.638     C107.854,199.505,107.656,199.563,107.458,199.563z"/>
		</g>
		<g>
			<path d="M119.596,200.267c-0.264,0-0.526-0.105-0.723-0.311l-10.452-11.045c-0.377-0.398-0.359-1.03,0.039-1.407     c0.4-0.379,1.028-0.357,1.407,0.039l10.452,11.045c0.377,0.398,0.359,1.03-0.039,1.407     C120.088,200.177,119.841,200.267,119.596,200.267z"/>
		</g>
		<g>
			<path d="M105.568,194.669c-0.546,0-0.989-0.439-0.995-0.985c-0.006-0.55,0.435-0.999,0.985-1.004l16.102-0.153h0.006     c0.55,0,0.993,0.439,0.999,0.985c0.006,0.55-0.435,0.999-0.985,1.004l-16.102,0.153H105.568z"/>
		</g>
	</g>
	<g>
		<g>
			<path d="M377.75,103.271h-0.006c-0.55-0.004-0.993-0.451-0.989-1.001l0.099-16.741c0.004-0.548,0.449-0.989,0.995-0.989h0.006     c0.55,0.004,0.993,0.451,0.989,1.001l-0.099,16.741C378.74,102.83,378.296,103.271,377.75,103.271z"/>
		</g>
		<g>
			<path d="M371,99.617c-0.313,0-0.622-0.148-0.816-0.425c-0.315-0.451-0.204-1.07,0.247-1.385l13.825-9.638     c0.445-0.311,1.069-0.206,1.385,0.247c0.315,0.451,0.204,1.07-0.247,1.385l-13.825,9.638     C371.397,99.558,371.199,99.617,371,99.617z"/>
		</g>
		<g>
			<path d="M383.139,100.32c-0.264,0-0.526-0.105-0.723-0.311l-10.452-11.045c-0.377-0.398-0.359-1.03,0.039-1.407     c0.4-0.379,1.028-0.357,1.407,0.039l10.452,11.045c0.377,0.398,0.359,1.03-0.039,1.407     C383.63,100.231,383.384,100.32,383.139,100.32z"/>
		</g>
		<g>
			<path d="M369.11,94.723c-0.546,0-0.989-0.439-0.995-0.985c-0.006-0.55,0.435-0.999,0.985-1.004l16.102-0.153h0.006     c0.55,0,0.993,0.439,0.999,0.985c0.006,0.55-0.435,0.999-0.985,1.004l-16.102,0.153H369.11z"/>
		</g>
	</g>
	<g>
		<g>
			<path d="M463.294,463.354h-0.006c-0.55-0.004-0.993-0.451-0.989-1.001l0.099-16.741c0.004-0.548,0.449-0.989,0.995-0.989h0.006     c0.55,0.004,0.993,0.451,0.989,1.001l-0.099,16.741C464.285,462.913,463.84,463.354,463.294,463.354z"/>
		</g>
		<g>
			<path d="M456.545,459.7c-0.313,0-0.622-0.148-0.816-0.425c-0.315-0.451-0.204-1.07,0.247-1.385l13.825-9.638     c0.445-0.311,1.069-0.206,1.385,0.247c0.315,0.451,0.204,1.07-0.247,1.385l-13.825,9.638     C456.941,459.642,456.743,459.7,456.545,459.7z"/>
		</g>
		<g>
			<path d="M468.684,460.403c-0.264,0-0.526-0.105-0.723-0.311l-10.452-11.045c-0.377-0.398-0.359-1.03,0.039-1.407     c0.4-0.379,1.028-0.357,1.407,0.039l10.452,11.045c0.377,0.398,0.359,1.03-0.039,1.407     C469.175,460.314,468.928,460.403,468.684,460.403z"/>
		</g>
		<g>
			<path d="M454.655,454.806c-0.546,0-0.989-0.439-0.995-0.985c-0.006-0.55,0.435-0.999,0.985-1.004l16.102-0.153h0.006     c0.55,0,0.993,0.439,0.999,0.985c0.006,0.55-0.435,0.999-0.985,1.004l-16.102,0.153H454.655z"/>
		</g>
	</g>
	<g>
		<g>
			<path d="M151.62,407.651h-0.006c-0.55-0.004-0.993-0.451-0.989-1.001l0.099-16.741c0.004-0.548,0.449-0.989,0.995-0.989h0.006     c0.55,0.004,0.993,0.451,0.989,1.001l-0.099,16.741C152.611,407.21,152.166,407.651,151.62,407.651z"/>
		</g>
		<g>
			<path d="M144.871,403.996c-0.313,0-0.622-0.148-0.816-0.425c-0.315-0.451-0.204-1.07,0.247-1.385l13.825-9.638     c0.445-0.311,1.069-0.206,1.385,0.247c0.315,0.451,0.204,1.07-0.247,1.385l-13.825,9.638     C145.267,403.938,145.069,403.996,144.871,403.996z"/>
		</g>
		<g>
			<path d="M157.009,404.7c-0.264,0-0.527-0.105-0.723-0.311l-10.452-11.045c-0.377-0.398-0.359-1.03,0.039-1.407     c0.4-0.379,1.028-0.357,1.407,0.039l10.452,11.045c0.377,0.398,0.359,1.03-0.039,1.407     C157.501,404.61,157.254,404.7,157.009,404.7z"/>
		</g>
		<g>
			<path d="M142.98,399.103c-0.546,0-0.989-0.439-0.995-0.985c-0.006-0.55,0.435-0.999,0.985-1.004l16.102-0.153h0.006     c0.55,0,0.993,0.439,0.999,0.985c0.006,0.55-0.435,0.999-0.985,1.004l-16.102,0.153H142.98z"/>
		</g>
	</g>
	<g>
		<g>
			<path style="fill:#FFFFFF;" d="M427.506,203.721c0,0-1.963-14.901,12.38-10.08c14.343,4.821,9.67,18.465,4.201,13.796     s4.792-20.503,15.768-13.452c10.976,7.051,8.521,20.732,0.736,21.742c-7.785,1.01,4.713-15.93,14.52-5.468     c9.807,10.462-11.605,29.535-20.363,22.523c-8.757-7.013-1.904-18.331,0.197-11.433c2.101,6.898-3.564,13.663-19.096,13.395     c-15.531-0.267-8.462-24.162-3.033-17.207c5.429,6.955-3.584,14.806-14.54,6.612     C407.321,215.954,419.819,199.014,427.506,203.721z"/>
		</g>
		<g>
			<path style="fill:#241726;" d="M436.736,235.746l-0.903-0.008c-5.092-0.087-8.675-2.697-9.937-7.19     c-2.679-0.34-5.504-1.576-8.216-3.604c-4.292-3.209-5.747-8.084-3.989-13.37c1.803-5.416,6.6-9.66,10.924-9.66     c0.622,0,1.226,0.084,1.805,0.249c-0.019-2.073,0.301-5.603,2.403-8c2.353-2.679,6.219-3.2,11.379-1.463     c1.991,0.668,3.734,1.537,5.197,2.588c2.467-2.603,5.617-4.078,8.762-4.078c2.131,0,4.227,0.653,6.232,1.939     c4.742,3.048,7.622,7.732,7.859,12.694c2.784,0.08,5.335,1.335,7.587,3.736c3.052,3.256,3.616,7.631,1.583,12.321     c-3.089,7.13-11.525,13.388-18.054,13.388c0,0,0,0-0.002,0c-2.042,0-3.806-0.581-5.24-1.729c-0.684-0.548-1.304-1.142-1.85-1.772     C448.848,234.38,443.507,235.746,436.736,235.746z M428.006,228.625c0.886,2.51,2.992,5.04,7.862,5.123l0.868,0.008     c7.806,0,12.071-1.832,14.361-3.571c-2.188-3.538-2.019-7.404-0.802-9.801c0.703-1.383,1.723-2.178,2.801-2.178     c0.721,0,2.046,0.371,2.802,2.852c1.051,3.456,0.272,6.833-2.137,9.403c0.47,0.546,1.01,1.063,1.609,1.543     c1.072,0.859,2.417,1.294,3.996,1.294c0.002,0,0.002,0,0.002,0c5.731,0,13.467-5.811,16.23-12.189     c1.199-2.77,1.962-6.784-1.212-10.17c-1.869-1.995-3.95-3.039-6.182-3.107c-0.468,4.764-3.448,8.358-7.484,8.882     c-0.274,0.035-0.527,0.051-0.76,0.052l0,0c-1.993,0-2.753-1.218-2.8-2.359c-0.113-2.807,3.932-7.524,9.106-8.42     c-0.188-4.336-2.737-8.461-6.949-11.165c-4.134-2.66-8.89-1.873-12.379,1.733c3.388,3.227,4.02,7.192,3.073,9.84     c-0.659,1.848-2.071,2.994-3.685,2.996h-0.002c-0.968,0-1.964-0.416-2.881-1.199c-3.019-2.574-2.044-7.608,0.682-11.371     c-1.278-0.9-2.807-1.649-4.556-2.238c-4.33-1.455-7.435-1.175-9.246,0.886c-2.483,2.823-1.838,8.07-1.83,8.123     c0.049,0.379-0.124,0.754-0.447,0.962c-0.319,0.208-0.732,0.216-1.059,0.016c-0.723-0.443-1.519-0.666-2.372-0.666     c-3.46,0-7.515,3.722-9.036,8.298c-0.695,2.092-1.768,7.365,3.293,11.15c2.211,1.653,4.476,2.718,6.621,3.12     c-0.441-3.858,0.74-7.62,2.296-9.551c0.868-1.078,1.881-1.647,2.93-1.647c0.727,0,1.817,0.286,2.883,1.651     c1.927,2.471,2.366,5.257,1.201,7.645C433.653,226.925,431.083,228.445,428.006,228.625z M453.097,220.196     c-0.185,0-0.626,0.295-1.028,1.09c-0.89,1.752-1.037,4.727,0.517,7.507c1.714-2.009,2.215-4.509,1.409-7.155     C453.674,220.586,453.273,220.196,453.097,220.196z M430.72,217.262c-0.42,0-0.909,0.321-1.379,0.905     c-1.327,1.646-2.298,5.164-1.815,8.484c2.52-0.039,4.616-1.164,5.49-2.955c0.818-1.679,0.46-3.701-0.983-5.549     C431.718,217.744,431.234,217.262,430.72,217.262z M466.177,208.03c-4.171,0.929-7.091,4.758-7.029,6.297     c0.008,0.19,0.017,0.451,0.812,0.451c0.153-0.002,0.323-0.014,0.503-0.037C463.448,214.354,465.688,211.663,466.177,208.03z      M445.66,198.089c-2.351,3.276-2.8,6.992-0.927,8.593c1.42,1.206,2.792,0.764,3.406-0.954     C448.854,203.725,448.323,200.678,445.66,198.089z"/>
		</g>
	</g>
	<g>
		<g>
			<path style="fill:#241726;" d="M214.058,134.837c-1.387,0-4.531-3.322-9.351-9.879c-5.993,5.945-9.609,8.958-10.747,8.958     c0,0,0,0-0.002,0c-0.313,0-0.74-0.202-0.929-0.453c-0.641-0.853-1.729-6.333-2.438-10.231     c-3.254,1.265-11.892,4.536-14.243,4.536c-1.203,0.002-1.428-0.785-1.469-1.024c-0.218-1.307,1.91-8.987,3.107-13.147     c-13.341-3.34-13.555-4.637-13.66-5.269c-0.093-0.56-0.309-1.846,9.288-9.049c-4.074-2.444-10.868-6.963-10.411-9.691     c0.455-2.726,7.66-4.874,11.847-5.898c-6.706-12.673-5.859-13.308-5.176-13.821c0.344-0.26,0.781-0.295,1.162-0.295     c2.207,0,9.137,1.622,11.954,2.304c0.48-13.685,1.282-13.885,2.061-14.081c0.078-0.019,0.2-0.033,0.282-0.033     c0.94,0,5.341,2.601,13.085,7.734c3.592-12.006,4.707-12.008,5.451-12.008c0.128,0,0.313,0.035,0.429,0.084     c0.404,0.161,1.461,0.583,5.764,11.635c2.934-1.579,9.959-5.246,11.999-5.246c0.28,0,0.517,0.051,0.727,0.155     c0.591,0.295,1.937,0.969-0.478,11.152c2.584-0.356,7.967-1.035,11.222-1.035c1.309,0,3.503,0,3.503,1.552     c0,1.467-2.953,7.412-4.711,10.823c5.172,1.465,10.932,3.41,11.593,4.954c0.286,0.664,0.942,2.197-9.743,10.023     c4.07,2.84,9.572,7.217,8.89,9.718c-0.672,2.465-8.387,4.245-13.786,5.199c2.075,3.845,4.723,9.38,3.835,11.152     c-0.515,1.028-1.993,1.166-3.371,1.166c-3.19,0.002-8.284-0.95-10.324-1.358c-1.032,3.116-3.369,9.92-4.455,11.004     C214.727,134.705,214.404,134.837,214.058,134.837L214.058,134.837z M204.828,122.441c0.025,0,0.052,0.002,0.078,0.004     c0.291,0.021,0.556,0.171,0.727,0.406c2.99,4.121,6.738,8.727,8.187,9.801c0.816-1.521,2.601-6.4,3.985-10.648     c0.157-0.482,0.649-0.762,1.154-0.664c0.07,0.016,7.019,1.496,10.784,1.494c0.973,0,1.418-0.101,1.597-0.161     c0.087-1.292-2.184-6.324-4.474-10.427c-0.157-0.284-0.169-0.626-0.027-0.919c0.14-0.291,0.416-0.495,0.734-0.548     c6.844-1.123,13.063-2.963,13.58-4.018c0.064-1.045-4.257-4.952-9.259-8.323c-0.27-0.183-0.433-0.486-0.439-0.81     c-0.006-0.324,0.15-0.633,0.414-0.822c4.404-3.173,9.32-7.21,10.089-8.579c-1.078-0.841-6.58-2.718-11.344-4.025     c-0.289-0.08-0.528-0.288-0.647-0.563c-0.12-0.276-0.109-0.591,0.029-0.857c2.151-4.115,4.391-8.791,4.931-10.487     c-0.276-0.037-0.713-0.068-1.393-0.068c-4.16,0-12.308,1.208-12.389,1.22c-0.338,0.056-0.661-0.068-0.884-0.315     s-0.309-0.587-0.229-0.909c1.016-4.06,1.875-8.91,1.682-10.297c-1.564,0.313-7.684,3.373-11.69,5.572     c-0.251,0.138-0.55,0.161-0.82,0.062c-0.27-0.099-0.484-0.309-0.587-0.577c-1.636-4.253-3.691-9.083-4.736-10.938     c-0.944,1.898-2.646,6.91-3.936,11.309c-0.087,0.303-0.317,0.546-0.614,0.655c-0.297,0.111-0.628,0.07-0.892-0.107     c-4.987-3.324-10.569-6.86-12.576-7.878c-0.385,2.042-0.756,7.878-0.923,13.145c-0.01,0.301-0.155,0.581-0.394,0.762     c-0.241,0.181-0.55,0.241-0.841,0.173c-2.629-0.659-9.558-2.291-12.166-2.512c0.651,2.048,3.305,7.495,5.875,12.306     c0.146,0.274,0.155,0.598,0.027,0.882c-0.13,0.282-0.383,0.488-0.686,0.556c-5.883,1.333-11.406,3.518-11.589,4.583     c-0.043,1.148,4.977,5.078,10.744,8.404c0.289,0.169,0.476,0.472,0.495,0.806c0.019,0.334-0.132,0.657-0.402,0.857     c-3.954,2.922-8.395,6.553-9.496,7.946c1.647,0.903,7.697,2.691,12.96,3.987c0.264,0.064,0.49,0.233,0.624,0.468     c0.136,0.235,0.171,0.515,0.095,0.775c-1.443,4.962-2.904,10.477-3.26,12.55c2.636-0.453,9.77-3.068,14.062-4.771     c0.278-0.111,0.591-0.089,0.851,0.056c0.262,0.146,0.443,0.4,0.495,0.694c0.699,3.93,1.583,8.272,2.081,9.968     c1.566-1.109,6.011-5.226,9.71-8.925C204.312,122.545,204.566,122.441,204.828,122.441z"/>
		</g>
		<g>
			<circle style="fill:#F5C400;" cx="203.369" cy="96.03" r="25.531"/>
		</g>
		<g>
			<g>
				<path style="fill:#FFFFFF;" d="M205.324,78.438c0,0,3.705,0.754,4.245,2.566"/>
			</g>
			<g>
				<path style="fill:#241726;" d="M209.569,82c-0.429,0-0.824-0.28-0.954-0.711c-0.241-0.81-2.182-1.609-3.489-1.875      c-0.538-0.111-0.886-0.635-0.777-1.173c0.111-0.54,0.645-0.884,1.173-0.777c0.717,0.146,4.325,0.989,5.001,3.258      c0.155,0.526-0.144,1.08-0.67,1.238C209.757,81.986,209.662,82,209.569,82z"/>
			</g>
		</g>
		<g>
			<g>
				<path style="fill:#FFFFFF;" d="M208.335,86.292c0,0,3.705,0.754,4.245,2.566"/>
			</g>
			<g>
				<path style="fill:#241726;" d="M212.58,89.852c-0.429,0-0.824-0.28-0.954-0.711c-0.241-0.81-2.182-1.609-3.489-1.875      c-0.538-0.111-0.886-0.635-0.777-1.173c0.111-0.54,0.641-0.888,1.173-0.777c0.717,0.146,4.325,0.989,5.001,3.258      c0.155,0.526-0.144,1.08-0.67,1.238C212.768,89.839,212.673,89.852,212.58,89.852z"/>
			</g>
		</g>
		<g>
			<g>
				<path style="fill:#FFFFFF;" d="M216.756,86.211c0,0,3.517,1.388,3.733,3.266"/>
			</g>
			<g>
				<path style="fill:#241726;" d="M220.487,90.472c-0.497,0-0.929-0.375-0.987-0.882c-0.095-0.837-1.867-1.964-3.11-2.454      c-0.511-0.2-0.762-0.779-0.56-1.29c0.202-0.511,0.781-0.764,1.29-0.56c0.68,0.268,4.088,1.725,4.358,4.078      c0.062,0.546-0.33,1.037-0.876,1.102C220.565,90.47,220.526,90.472,220.487,90.472z"/>
			</g>
		</g>
		<g>
			<g>
				<path style="fill:#FFFFFF;" d="M198.696,84.241c0,0,3.705,0.754,4.245,2.566"/>
			</g>
			<g>
				<path style="fill:#241726;" d="M202.942,87.801c-0.429,0-0.824-0.28-0.954-0.711c-0.241-0.808-2.182-1.609-3.489-1.873      c-0.538-0.109-0.886-0.635-0.777-1.173c0.109-0.54,0.628-0.882,1.173-0.777c0.717,0.146,4.325,0.987,5.001,3.256      c0.155,0.526-0.144,1.08-0.67,1.238C203.13,87.787,203.035,87.801,202.942,87.801z"/>
			</g>
		</g>
		<g>
			<g>
				<path style="fill:#FFFFFF;" d="M194.33,77.967c0,0,3.78-0.1,4.713,1.545"/>
			</g>
			<g>
				<path style="fill:#241726;" d="M199.045,80.506c-0.346,0-0.682-0.181-0.865-0.503c-0.433-0.764-2.561-1.086-3.825-1.041      c-0.548,0.014-1.006-0.422-1.02-0.969c-0.014-0.55,0.42-1.004,0.969-1.02c0.713-0.023,4.435-0.012,5.605,2.048      c0.272,0.478,0.105,1.084-0.373,1.356C199.381,80.465,199.212,80.506,199.045,80.506z"/>
			</g>
		</g>
	</g>
	<g>
		<g>
			<path style="fill:#E77C92;" d="M426.627,303.695c0,0,0.689,67.235-21.692,82.951l29.631,21.884c0,0,28.014-51.924,2.358-105.307     L426.627,303.695z"/>
		</g>
		<g>
			<path style="fill:#241726;" d="M432.501,326.223c-1.08,0-2.246-0.068-3.495-0.225c-0.546-0.068-0.931-0.567-0.863-1.111     c0.07-0.548,0.571-0.938,1.111-0.863c8.235,1.049,12.376-2.164,12.416-2.197c0.427-0.334,1.055-0.27,1.397,0.157     c0.342,0.427,0.276,1.049-0.15,1.393C442.753,323.511,439.307,326.223,432.501,326.223z"/>
		</g>
		<g>
			<path style="fill:#241726;" d="M432.913,343.749c-2.609,0-5.257-0.455-7.361-1.801c-0.462-0.295-0.598-0.911-0.301-1.374     c0.295-0.466,0.911-0.596,1.374-0.301c5.481,3.507,16.096-0.278,16.201-0.317c0.521-0.186,1.09,0.078,1.274,0.594     c0.188,0.517-0.078,1.088-0.595,1.274C443.19,341.94,438.124,343.749,432.913,343.749z"/>
		</g>
		<g>
			<path style="fill:#241726;" d="M438.739,361.156c-4.307,0-10.223-0.49-16.158-2.539c-0.519-0.179-0.795-0.746-0.616-1.265     c0.179-0.519,0.746-0.795,1.265-0.616c10.691,3.689,21.637,2.059,21.749,2.042c0.54-0.078,1.051,0.289,1.135,0.832     c0.084,0.542-0.288,1.051-0.832,1.135C445.065,360.777,442.522,361.156,438.739,361.156z"/>
		</g>
		<g>
			<path style="fill:#241726;" d="M433.146,378.119c-4.855,0-11.066-0.868-14.936-4.682c-0.392-0.387-0.396-1.016-0.012-1.407     c0.387-0.394,1.02-0.394,1.407-0.012c6.213,6.12,20.178,3.567,20.32,3.542c0.55-0.099,1.059,0.255,1.162,0.793     c0.103,0.54-0.253,1.059-0.793,1.162C440.022,377.567,437.014,378.119,433.146,378.119z"/>
		</g>
		<g>
			<g>
				<g>
					<path style="fill:#51B0A7;" d="M434.94,287.832c0,0,21.25-22.375,35.647-4.378c14.397,17.997,11.886,22.846,11.886,22.846       l-34.138-3.625c0,0,25.344,8.733,24.119,21.275c-1.225,12.542-11.194,26.704-11.194,26.704l-26.259-42.587l-42.451,41.262       c0,0-4.502-26.927,8.572-38.603c13.074-11.676,24.565-10.117,24.565-10.117l-41.114-3.724c0,0,9.468-17.395,20.983-17.58       c11.515-0.185,21.999,12.609,21.999,12.609l-21.484-34.844c0,0,10.922-7.52,24.033,2.783       C443.215,270.157,434.94,287.832,434.94,287.832z"/>
				</g>
			</g>
			<g>
				<path style="fill:#241726;" d="M478.551,304.217c-0.12,0-0.243-0.021-0.361-0.068c-0.511-0.198-0.765-0.775-0.565-1.288      c0.06-0.163,1.5-4.224-3.421-8.041c-2.075-1.613-3.998-1.203-5.294-0.525c0.406,1.185,0.492,2.413,0.225,3.616      c-0.389,1.754-1.496,3.099-2.751,3.344c-0.866,0.163-1.649-0.181-2.182-0.952c-1.253-1.82,0.049-4.67,1.908-6.427      c0.093-0.089,0.19-0.177,0.289-0.262c-0.49-0.767-1.228-1.578-2.326-2.376c-2.699-1.956-6.267-0.447-8.509,1.443      c-0.229,0.194-0.447,0.392-0.649,0.591c1.63,2.339,1.377,3.989,1.127,4.698c-0.363,1.03-1.22,1.708-2.236,1.768      c-1.065,0.091-2.092-0.593-2.65-1.717c-0.696-1.403-0.051-3.188,1.158-4.795c-0.276-0.297-0.587-0.604-0.934-0.919      c-1.086-0.991-2.195-1.356-3.369-1.133c-3.445,0.663-6.833,6.221-7.849,8.305c-0.239,0.497-0.841,0.697-1.329,0.458      c-0.493-0.239-0.699-0.835-0.458-1.329c0.165-0.342,4.142-8.404,9.261-9.388c1.82-0.346,3.524,0.194,5.084,1.613      c0.338,0.309,0.645,0.608,0.923,0.901c0.208-0.2,0.422-0.391,0.639-0.575c2.788-2.355,7.336-4.173,10.961-1.531      c1.173,0.853,2.112,1.828,2.788,2.873c2.104-1.094,4.779-1.282,7.392,0.746c6.133,4.76,4.142,10.11,4.055,10.336      C479.324,303.976,478.949,304.217,478.551,304.217z M467.205,295.591c-1.288,1.356-1.791,2.965-1.364,3.584      c0.093,0.136,0.13,0.138,0.161,0.126c0.286-0.056,0.929-0.647,1.189-1.822C467.283,297.072,467.361,296.405,467.205,295.591z       M453.582,294.876c-0.631,0.971-0.863,1.818-0.643,2.261c0.2,0.4,0.486,0.686,0.746,0.614c0.206-0.012,0.387-0.179,0.48-0.445      C454.344,296.8,454.227,295.956,453.582,294.876z"/>
			</g>
			<g>
				<path style="fill:#241726;" d="M463.632,338.253c-0.352,0-0.694-0.188-0.874-0.519c-0.262-0.484-0.084-1.088,0.398-1.35      c0.153-0.085,3.872-2.259,2.576-8.352c-0.548-2.574-2.281-3.499-3.707-3.814c-0.455,1.166-1.183,2.158-2.16,2.904      c-1.43,1.09-3.143,1.405-4.261,0.781c-0.76-0.425-1.144-1.203-1.053-2.135c0.218-2.199,3.05-3.536,5.605-3.68      c0.128-0.006,0.258-0.012,0.391-0.012c0.122-0.903,0.08-1.999-0.243-3.318c-0.878-3.571-5.263-4.585-8.313-4.354      c-0.262,2.84-1.519,3.936-2.168,4.315c-0.94,0.556-2.032,0.521-2.85-0.089c-0.865-0.645-1.216-1.803-0.915-3.021      c0.373-1.523,2.017-2.469,3.977-2.918c-0.019-0.404-0.058-0.839-0.12-1.304c-0.19-1.455-0.795-2.45-1.844-3.039      c-3.054-1.714-9.232,0.344-11.354,1.28c-0.493,0.223-1.09-0.004-1.311-0.507c-0.221-0.503,0.004-1.09,0.507-1.311      c0.348-0.155,8.583-3.748,13.131-1.197c1.611,0.903,2.568,2.423,2.844,4.513c0.058,0.453,0.099,0.88,0.124,1.282      c0.288-0.017,0.573-0.027,0.857-0.027c3.652,0,8.296,1.546,9.366,5.902c0.346,1.409,0.433,2.761,0.276,3.994      c2.314,0.523,4.478,2.102,5.168,5.339c1.614,7.594-3.359,10.398-3.571,10.514C463.957,338.214,463.794,338.253,463.632,338.253z       M459.887,324.107c-1.859,0.204-3.281,1.109-3.353,1.855c-0.017,0.171,0.019,0.19,0.041,0.202      c0.251,0.144,1.123,0.105,2.085-0.624C458.991,325.289,459.481,324.83,459.887,324.107z M449.938,314.772      c-1.107,0.334-1.83,0.833-1.949,1.311c-0.107,0.435-0.043,0.791,0.173,0.952c0.171,0.122,0.41,0.113,0.655-0.031      C449.281,316.732,449.736,316.014,449.938,314.772z"/>
			</g>
			<g>
				<path style="fill:#241726;" d="M401.471,336.211c-0.173,0-0.346-0.045-0.505-0.138c-0.117-0.068-2.887-1.729-3.654-4.839      c-0.486-1.962-0.072-4.022,1.228-6.12c1.243-2.007,3.204-3.32,5.512-3.771c-0.583-2.765,0.041-6.353,3.344-10.068      c2.438-2.745,6.267-3.499,10.248-2.019c0.185,0.07,0.371,0.144,0.558,0.225c0.933-1.585,2.201-3.107,3.551-4.206      c1.607-1.311,3.225-1.813,4.814-1.486c2.66,0.55,4.101,3.27,4.161,3.386c0.253,0.486,0.064,1.084-0.422,1.339      c-0.48,0.251-1.086,0.066-1.341-0.418c-0.012-0.021-1.082-2.009-2.809-2.36c-0.975-0.196-2.028,0.169-3.147,1.082      c-1.284,1.045-2.308,2.351-3.04,3.606c1.517,0.987,2.714,2.304,2.733,3.691c0.016,1.006-0.616,1.842-1.731,2.294      c-2.469,0.995-3.513,0.002-3.915-0.678c-0.649-1.098-0.455-2.741,0.253-4.468c-0.119-0.049-0.239-0.097-0.361-0.142      c-1.189-0.445-5.292-1.649-8.065,1.475c-2.901,3.262-3.38,6.328-2.833,8.575c0.33,0.006,0.663,0.027,1.001,0.064      c2.337,0.264,4.134,1.278,4.579,2.58c0.264,0.769,0.045,1.57-0.6,2.197c-1.222,1.191-3.204,0.936-4.814-0.608      c-0.575-0.548-1.107-1.278-1.523-2.153c-1.677,0.266-3.353,1.119-4.463,2.91c-1.006,1.624-1.339,3.171-0.987,4.595      c0.569,2.306,2.712,3.588,2.733,3.602c0.472,0.278,0.631,0.888,0.352,1.362C402.143,336.036,401.811,336.211,401.471,336.211z       M406.963,323.229c0.194,0.28,0.406,0.528,0.628,0.74c0.674,0.643,1.593,1.061,2.052,0.618c0.068-0.34-0.664-0.987-2.246-1.288      C407.255,323.272,407.111,323.249,406.963,323.229z M419.092,312.233c-0.439,1.15-0.56,2.087-0.323,2.487      c0.118,0.2,0.715,0.144,1.455-0.155c0.326-0.132,0.49-0.274,0.488-0.422C420.707,313.71,420.12,312.95,419.092,312.233z"/>
			</g>
			<g>
				<path style="fill:#241726;" d="M432.192,294.093c-0.167,0-0.334-0.041-0.49-0.128c-0.478-0.27-0.647-0.878-0.377-1.356      c1.181-2.092,3.934-8.268,2.51-11.664c-0.416-0.995-1.16-1.686-2.265-2.106c-0.556,1.513-1.482,2.735-2.778,3.274      c-1.857,0.767-3.289,0.126-4.008-0.732c-0.816-0.975-0.909-2.345-0.229-3.41c0.457-0.717,1.867-2.176,5.568-1.544      c0.15-1.119,0.113-2.347-0.163-3.503c-0.383-1.595-1.511-4.247-4.637-4.043c-0.618,1.799-1.673,3.351-2.644,4.175      c-0.915,0.771-1.954,0.925-2.776,0.416c-0.853-0.526-1.236-1.655-0.956-2.807c0.175-0.711,1.016-2.904,4.808-3.594      c0.148-0.789,0.167-1.591,0.002-2.335c-0.381-1.696-1.681-2.852-3.866-3.437c-5.094-1.37-6.821-0.4-7.052,0.086      c-0.152,0.528-0.688,0.806-1.22,0.647c-0.526-0.152-0.82-0.736-0.668-1.265c0.175-0.608,1.455-3.534,9.454-1.391      c3.685,0.987,4.913,3.223,5.294,4.925c0.19,0.847,0.206,1.723,0.097,2.586c3.021,0.076,5.273,2.114,6.1,5.578      c0.336,1.407,0.391,2.972,0.165,4.437c1.739,0.6,2.953,1.7,3.612,3.277c2.088,4.991-2.421,13.069-2.613,13.411      C432.876,293.911,432.538,294.093,432.192,294.093z M428.435,278.265c-1.222,0-1.933,0.354-2.203,0.775      c-0.214,0.334-0.183,0.75,0.078,1.061c0.35,0.418,0.977,0.48,1.721,0.173c0.664-0.276,1.214-0.979,1.593-1.914      C429.185,278.295,428.788,278.265,428.435,278.265z M422.999,269.313c-1.3,0.451-1.949,1.16-2.114,1.803      c-0.105,0.402,0.019,0.633,0.064,0.662h0.002c0.031,0,0.19-0.031,0.441-0.243C421.948,271.065,422.537,270.265,422.999,269.313z      "/>
			</g>
			<g>
				<path style="fill:#241726;" d="M426.768,299.366c-0.458,0-0.87-0.317-0.971-0.783c-0.014-0.06-1.393-6.203-4.509-8.002      c-0.876-0.505-1.795-0.596-2.815-0.272c-0.752,0.239-1.356,0.548-1.844,0.888c0.01,0.019,0.019,0.041,0.029,0.062      c1.397,3.019,1.201,5.675-0.476,6.46c-0.851,0.398-1.731,0.321-2.413-0.202c-0.931-0.711-1.358-2.178-1.086-3.734      c0.194-1.111,0.694-2.129,1.442-2.994c-1.387-2.088-3.645-3.662-6.378-2.407c-1.164,0.534-2.081,1.189-2.796,1.881      c0.144,0.317,0.274,0.637,0.389,0.962c0.997,2.831,0.567,5.15-1.121,6.054c-1.181,0.628-2.017,0.295-2.411,0.039      c-0.795-0.517-1.193-1.579-1.094-2.916c0.099-1.352,0.699-2.937,1.832-4.406c-1.148-1.815-2.92-3.161-4.721-2.829      c-4.472,0.843-4.89,6.44-4.894,6.497c-0.037,0.55-0.548,0.987-1.057,0.929c-0.55-0.037-0.964-0.509-0.929-1.057      c0.163-2.487,1.733-7.423,6.51-8.323c2.594-0.484,4.925,1.067,6.485,3.291c0.828-0.734,1.818-1.397,2.978-1.927      c3.592-1.646,6.755,0.095,8.715,2.897c0.659-0.437,1.41-0.797,2.236-1.059c1.558-0.495,3.044-0.346,4.416,0.447      c3.876,2.24,5.391,9.013,5.453,9.3c0.117,0.536-0.221,1.067-0.76,1.183C426.91,299.358,426.838,299.366,426.768,299.366z       M415.142,292.79c-0.33,0.575-0.455,1.078-0.499,1.335c-0.175,1.001,0.113,1.642,0.334,1.813      c0.043,0.033,0.117,0.099,0.361-0.021C415.611,295.789,415.805,294.577,415.142,292.79z M403.528,292.077      c-0.544,0.948-0.785,1.838-0.832,2.463c-0.052,0.713,0.124,1.063,0.196,1.109c0.017,0.002,0.159-0.006,0.389-0.128      C403.967,295.154,404.065,293.724,403.528,292.077z"/>
			</g>
		</g>
	</g>
	<g>
		<g>
			<path style="fill:#E77C92;" d="M85.373,372.568c0,0-0.689,67.235,21.692,82.951l-29.631,21.884c0,0-28.014-51.924-2.358-105.307     L85.373,372.568z"/>
		</g>
		<g>
			<path style="fill:#241726;" d="M79.494,395.097c-6.802,0-10.246-2.712-10.411-2.846c-0.427-0.346-0.493-0.971-0.148-1.399     c0.344-0.427,0.973-0.49,1.395-0.152c0.058,0.049,4.21,3.239,12.414,2.195c0.53-0.082,1.041,0.317,1.111,0.863     c0.068,0.544-0.317,1.041-0.863,1.111C81.741,395.029,80.574,395.097,79.494,395.097z"/>
		</g>
		<g>
			<path style="fill:#241726;" d="M79.087,412.621c-5.212,0-10.277-1.807-10.592-1.921c-0.515-0.187-0.783-0.758-0.594-1.274     c0.187-0.515,0.758-0.779,1.274-0.594c0.105,0.037,10.724,3.821,16.201,0.317c0.46-0.297,1.078-0.165,1.374,0.301     c0.297,0.462,0.161,1.078-0.301,1.374C84.345,412.168,81.697,412.621,79.087,412.621z"/>
		</g>
		<g>
			<path style="fill:#241726;" d="M73.263,430.03c-3.786,0-6.33-0.381-6.547-0.414c-0.544-0.084-0.915-0.593-0.832-1.135     c0.084-0.54,0.587-0.917,1.135-0.832c0.113,0.017,11.08,1.646,21.751-2.042c0.519-0.181,1.086,0.097,1.265,0.616     c0.179,0.519-0.097,1.086-0.616,1.265C83.486,429.538,77.57,430.03,73.263,430.03z"/>
		</g>
		<g>
			<path style="fill:#241726;" d="M78.854,446.992c-3.868,0-6.876-0.552-7.147-0.604c-0.54-0.103-0.896-0.622-0.793-1.162     s0.61-0.896,1.162-0.793c0.14,0.025,14.105,2.578,20.32-3.542c0.387-0.385,1.02-0.381,1.407,0.012     c0.385,0.391,0.381,1.02-0.012,1.407C89.92,446.124,83.709,446.992,78.854,446.992z"/>
		</g>
		<g>
			<g>
				<g>
					<path style="fill:#51B0A7;" d="M77.06,356.705c0,0-21.25-22.375-35.647-4.378s-11.886,22.846-11.886,22.846l34.138-3.625       c0,0-25.344,8.733-24.119,21.275c1.225,12.542,11.194,26.704,11.194,26.704l26.259-42.587l42.451,41.262       c0,0,4.502-26.927-8.572-38.603c-13.074-11.676-24.565-10.117-24.565-10.117l41.114-3.724c0,0-9.468-17.395-20.983-17.58       c-11.515-0.185-21.999,12.609-21.999,12.609l21.484-34.844c0,0-10.922-7.52-24.033,2.783S77.06,356.705,77.06,356.705z"/>
				</g>
			</g>
			<g>
				<path style="fill:#241726;" d="M33.448,373.091c-0.398,0-0.773-0.241-0.927-0.633c-0.087-0.225-2.077-5.576,4.055-10.336      c2.615-2.028,5.288-1.836,7.394-0.748c0.674-1.043,1.613-2.02,2.786-2.873c3.627-2.64,8.173-0.824,10.963,1.533      c0.218,0.183,0.431,0.375,0.637,0.573c0.28-0.291,0.585-0.591,0.923-0.9c1.562-1.418,3.279-1.956,5.086-1.613      c5.117,0.983,9.094,9.046,9.259,9.388c0.241,0.493,0.035,1.088-0.458,1.329c-0.488,0.237-1.09,0.039-1.329-0.458      c-1.018-2.087-4.412-7.645-7.849-8.305c-1.185-0.227-2.285,0.144-3.369,1.133c-0.348,0.315-0.657,0.622-0.933,0.917      c1.208,1.609,1.853,3.392,1.158,4.797c-0.558,1.125-1.543,1.749-2.652,1.717c-1.016-0.062-1.873-0.74-2.234-1.77      c-0.251-0.709-0.505-2.359,1.127-4.696c-0.202-0.2-0.42-0.398-0.651-0.593c-2.24-1.892-5.809-3.406-8.509-1.443      c-1.098,0.798-1.836,1.609-2.326,2.378c0.099,0.085,0.196,0.173,0.291,0.262c1.859,1.756,3.161,4.606,1.908,6.425      c-0.532,0.771-1.319,1.123-2.182,0.954c-1.255-0.245-2.36-1.587-2.751-3.344c-0.266-1.203-0.181-2.43,0.223-3.616      c-1.292-0.682-3.213-1.092-5.294,0.525c-4.974,3.858-3.437,8-3.421,8.041c0.2,0.513-0.054,1.09-0.565,1.288      C33.69,373.069,33.568,373.091,33.448,373.091z M44.795,364.465c-0.155,0.814-0.078,1.48,0.014,1.888      c0.26,1.175,0.903,1.766,1.189,1.822c0.016-0.002,0.06,0.019,0.161-0.128C46.585,367.429,46.083,365.821,44.795,364.465z       M58.418,363.75c-0.647,1.08-0.764,1.921-0.585,2.43c0.095,0.266,0.274,0.431,0.482,0.445c0.214,0.002,0.546-0.212,0.746-0.616      C59.281,365.568,59.05,364.719,58.418,363.75z"/>
			</g>
			<g>
				<path style="fill:#241726;" d="M50.084,403.963c-0.159,0-0.321-0.039-0.472-0.12c-0.212-0.117-5.183-2.922-3.569-10.514      c0.688-3.239,2.854-4.818,5.168-5.341c-0.157-1.234-0.07-2.584,0.276-3.992c1.069-4.356,5.712-5.902,9.364-5.902      c0.286,0,0.571,0.008,0.859,0.027c0.025-0.404,0.066-0.832,0.124-1.284c0.276-2.09,1.234-3.608,2.844-4.513      c4.542-2.551,12.785,1.043,13.131,1.199c0.503,0.221,0.729,0.808,0.507,1.311c-0.221,0.505-0.816,0.729-1.311,0.507      c-2.122-0.938-8.302-3.004-11.356-1.28c-1.047,0.589-1.651,1.581-1.842,3.037c-0.062,0.466-0.101,0.9-0.12,1.304      c1.96,0.449,3.604,1.397,3.977,2.918c0.301,1.218-0.051,2.376-0.915,3.021c-0.82,0.608-1.91,0.641-2.85,0.091      c-0.649-0.381-1.906-1.477-2.168-4.315c-3.025-0.235-7.437,0.779-8.313,4.354c-0.323,1.317-0.365,2.413-0.243,3.316      c0.13,0.002,0.26,0.006,0.389,0.012c2.555,0.144,5.389,1.48,5.607,3.682c0.091,0.931-0.291,1.71-1.053,2.133      c-1.117,0.624-2.829,0.309-4.261-0.779c-0.979-0.748-1.706-1.741-2.16-2.906c-1.426,0.313-3.159,1.24-3.707,3.814      c-1.296,6.093,2.421,8.268,2.58,8.358c0.476,0.268,0.649,0.872,0.385,1.35C50.771,403.776,50.433,403.963,50.084,403.963z       M53.835,389.816c0.406,0.723,0.896,1.181,1.228,1.434c0.96,0.732,1.832,0.762,2.085,0.626c0.021-0.012,0.058-0.033,0.041-0.202      C57.116,390.927,55.694,390.021,53.835,389.816z M63.782,380.48c0.204,1.241,0.659,1.96,1.123,2.234      c0.243,0.142,0.49,0.155,0.653,0.029c0.216-0.161,0.282-0.517,0.175-0.952C65.614,381.314,64.891,380.815,63.782,380.48z"/>
			</g>
			<g>
				<path style="fill:#241726;" d="M110.531,405.082c-0.34,0-0.67-0.175-0.857-0.488c-0.278-0.472-0.122-1.082,0.348-1.362      c0.021-0.014,2.182-1.329,2.739-3.621c0.346-1.418,0.012-2.957-0.991-4.575c-1.109-1.789-2.788-2.644-4.463-2.91      c-0.416,0.874-0.95,1.605-1.523,2.155c-1.611,1.539-3.592,1.797-4.814,0.606c-0.645-0.628-0.865-1.428-0.6-2.197      c0.445-1.302,2.242-2.316,4.579-2.58c0.338-0.037,0.672-0.058,1.001-0.064c0.55-2.248,0.068-5.315-2.833-8.577      c-2.774-3.118-6.876-1.916-8.066-1.473c-0.132,0.049-0.262,0.101-0.389,0.153c0.711,1.739,0.913,3.386,0.28,4.457      c-0.402,0.68-1.449,1.671-3.915,0.676c-1.113-0.451-1.745-1.286-1.731-2.292c0.019-1.387,1.216-2.704,2.735-3.691      c-0.732-1.257-1.756-2.563-3.04-3.608c-1.123-0.917-2.186-1.274-3.155-1.08c-1.715,0.356-2.79,2.337-2.801,2.357      c-0.255,0.492-0.857,0.676-1.341,0.424c-0.488-0.253-0.678-0.855-0.424-1.341c0.06-0.117,1.504-2.838,4.163-3.388      c1.579-0.322,3.204,0.173,4.816,1.486c1.339,1.092,2.597,2.623,3.526,4.216c0.194-0.084,0.387-0.161,0.579-0.233      c3.977-1.48,7.808-0.73,10.25,2.017c3.303,3.715,3.926,7.305,3.344,10.069c2.308,0.451,4.268,1.764,5.512,3.771      c1.3,2.098,1.714,4.156,1.228,6.118c-0.767,3.11-3.538,4.771-3.654,4.839C110.875,405.038,110.702,405.082,110.531,405.082z       M105.037,392.103c-0.148,0.019-0.291,0.043-0.433,0.07c-1.581,0.301-2.314,0.948-2.355,1.17      c0.567,0.563,1.486,0.142,2.16-0.499C104.631,392.631,104.843,392.383,105.037,392.103z M92.908,381.107      c-1.028,0.717-1.616,1.477-1.622,1.91c-0.002,0.183,0.264,0.33,0.488,0.42c0.736,0.299,1.333,0.363,1.457,0.155      C93.468,383.193,93.348,382.255,92.908,381.107z"/>
			</g>
			<g>
				<path style="fill:#241726;" d="M79.808,362.967c-0.346,0-0.684-0.183-0.866-0.505c-0.192-0.342-4.702-8.418-2.615-13.411      c0.661-1.578,1.875-2.677,3.614-3.277c-0.225-1.465-0.171-3.031,0.165-4.439c0.826-3.462,3.081-5.5,6.1-5.576      c-0.109-0.863-0.093-1.739,0.097-2.586c0.381-1.704,1.609-3.94,5.294-4.927c8.004-2.139,9.275,0.785,9.452,1.393      c0.152,0.528-0.153,1.08-0.68,1.232c-0.538,0.157-1.08-0.153-1.232-0.68c-0.208-0.424-1.929-1.391-7.025-0.021      c-2.188,0.585-3.487,1.741-3.868,3.437c-0.167,0.746-0.146,1.546,0.002,2.337c3.792,0.69,4.634,2.881,4.806,3.594      c0.282,1.152-0.103,2.281-0.956,2.807c-0.826,0.509-1.863,0.354-2.774-0.416c-0.971-0.824-2.026-2.376-2.644-4.175      c-3.149-0.167-4.257,2.448-4.637,4.043c-0.276,1.156-0.313,2.382-0.163,3.501c3.715-0.624,5.11,0.83,5.568,1.544      c0.68,1.067,0.587,2.436-0.229,3.412c-0.721,0.857-2.149,1.5-4.008,0.732c-1.296-0.538-2.223-1.76-2.778-3.274      c-1.105,0.42-1.851,1.111-2.267,2.106c-1.422,3.396,1.331,9.572,2.512,11.664c0.27,0.478,0.101,1.086-0.377,1.356      C80.142,362.926,79.975,362.967,79.808,362.967z M82.377,347.234c0.379,0.934,0.929,1.638,1.593,1.914      c0.742,0.307,1.37,0.245,1.721-0.173c0.26-0.311,0.291-0.727,0.078-1.061C85.421,347.372,84.341,346.941,82.377,347.234z       M89.002,338.187c0.462,0.952,1.051,1.752,1.607,2.223c0.262,0.221,0.42,0.258,0.451,0.239c0.037-0.025,0.161-0.256,0.056-0.661      C90.948,339.346,90.301,338.637,89.002,338.187z"/>
			</g>
			<g>
				<path style="fill:#241726;" d="M85.233,368.24c-0.07,0-0.14-0.008-0.212-0.023c-0.536-0.117-0.878-0.647-0.76-1.183      c0.062-0.288,1.578-7.06,5.453-9.3c1.37-0.793,2.858-0.942,4.416-0.447c0.826,0.262,1.578,0.62,2.236,1.059      c1.958-2.803,5.125-4.548,8.713-2.897c1.16,0.53,2.151,1.193,2.978,1.927c1.56-2.224,3.895-3.771,6.487-3.291      c4.777,0.9,6.347,5.836,6.51,8.323c0.035,0.546-0.379,1.018-0.925,1.055c-0.577,0.051-1.022-0.379-1.061-0.923      c-0.016-0.231-0.445-5.663-4.894-6.501c-1.813-0.33-3.573,1.016-4.721,2.829c1.133,1.469,1.733,3.054,1.832,4.406      c0.099,1.337-0.299,2.399-1.094,2.916c-0.394,0.256-1.234,0.591-2.411-0.039c-1.688-0.903-2.12-3.223-1.121-6.054      c0.113-0.324,0.243-0.645,0.389-0.962c-0.715-0.692-1.634-1.346-2.798-1.881c-2.735-1.255-4.991,0.315-6.376,2.407      c0.748,0.865,1.247,1.883,1.442,2.994c0.272,1.556-0.155,3.021-1.086,3.732c-0.682,0.523-1.562,0.6-2.413,0.202      c-1.677-0.783-1.873-3.439-0.476-6.458c0.01-0.021,0.019-0.043,0.029-0.064c-0.488-0.338-1.092-0.647-1.844-0.886      c-1.02-0.323-1.939-0.233-2.817,0.274c-2.592,1.498-4.132,6.283-4.507,8C86.103,367.923,85.691,368.24,85.233,368.24z       M96.858,361.663c-0.662,1.785-0.468,2.998-0.198,3.124c0.247,0.117,0.323,0.052,0.363,0.021      c0.221-0.169,0.509-0.812,0.334-1.811C97.313,362.74,97.188,362.236,96.858,361.663z M108.472,360.95      c-0.536,1.647-0.439,3.077,0.247,3.445c0.233,0.124,0.371,0.138,0.394,0.124c0.066-0.043,0.243-0.392,0.19-1.105      C109.257,362.788,109.016,361.898,108.472,360.95z"/>
			</g>
		</g>
	</g>
	<g>
		<path style="fill:#241726;" d="M64.962,305.119c-0.736,0-1.432,0-3.371-7.719c-6.539-1.259-7.113-2.028-7.305-2.287    c-0.187-0.249-0.266-0.703-0.181-1.001c0.119-0.42,0.392-1.391,7.866-4.402c2.685-7,3.594-6.998,4.2-6.998    c0.313,0,0.746,0.223,0.934,0.476c0.48,0.647,0.915,2.322,1.576,5.003c0.206,0.841,0.455,1.853,0.598,2.3    c0.392,0.175,1.259,0.486,1.978,0.742c3.841,1.377,4.832,1.846,5.012,2.763c0.066,0.344-0.109,0.847-0.369,1.08    c-0.779,0.701-4.494,2.081-6.442,2.774c-3.165,7.202-3.843,7.237-4.441,7.266C65,305.119,64.979,305.119,64.962,305.119z     M56.815,294.256c1.307,0.377,3.691,0.919,5.77,1.307c0.383,0.072,0.69,0.359,0.783,0.738c0.532,2.156,1.228,4.61,1.727,6.011    c0.725-1.304,1.822-3.614,2.714-5.655c0.111-0.253,0.321-0.449,0.581-0.54c1.778-0.626,3.785-1.393,5.032-1.939    c-0.874-0.369-2.065-0.797-2.836-1.072c-2.195-0.787-2.609-0.958-2.891-1.337c-0.247-0.332-0.4-0.884-0.946-3.103    c-0.204-0.835-0.521-2.114-0.8-3.073c-0.651,1.243-1.562,3.359-2.271,5.23c-0.099,0.262-0.303,0.468-0.561,0.573    C60.808,292.316,58.187,293.489,56.815,294.256z"/>
	</g>
	<g>
		<path style="fill:#241726;" d="M428.394,490.038c-0.736,0-1.432,0-3.371-7.719c-6.541-1.259-7.114-2.028-7.307-2.287    c-0.187-0.249-0.266-0.703-0.181-1.001c0.118-0.42,0.392-1.391,7.866-4.404c2.685-6.996,3.594-6.996,4.2-6.996    c0.313,0,0.746,0.223,0.934,0.476c0.48,0.645,0.915,2.322,1.576,5.005c0.206,0.839,0.455,1.851,0.598,2.296    c0.392,0.175,1.255,0.484,1.972,0.742c3.847,1.377,4.839,1.848,5.02,2.765c0.066,0.344-0.109,0.847-0.369,1.08    c-0.781,0.699-4.496,2.079-6.444,2.774c-3.165,7.198-3.841,7.235-4.437,7.266C428.433,490.038,428.412,490.038,428.394,490.038z     M420.246,479.176c1.307,0.377,3.691,0.919,5.772,1.307c0.383,0.07,0.69,0.359,0.783,0.738c0.532,2.155,1.226,4.608,1.727,6.009    c0.725-1.306,1.822-3.614,2.712-5.653c0.111-0.253,0.321-0.449,0.581-0.54c1.776-0.626,3.783-1.393,5.034-1.941    c-0.876-0.369-2.071-0.797-2.844-1.074c-2.19-0.783-2.601-0.954-2.885-1.331c-0.247-0.334-0.4-0.886-0.946-3.105    c-0.204-0.833-0.521-2.116-0.8-3.073c-0.651,1.243-1.562,3.357-2.271,5.228c-0.099,0.262-0.303,0.468-0.561,0.573    C424.238,477.236,421.618,478.409,420.246,479.176z"/>
	</g>
	<g>
		<path style="fill:#241726;" d="M253.324,42.421c-0.734,0-1.43,0-3.369-7.719c-6.541-1.26-7.114-2.028-7.307-2.287    c-0.187-0.248-0.266-0.703-0.181-1.001c0.119-0.419,0.392-1.39,7.866-4.403c2.685-6.998,3.594-6.998,4.2-6.998    c0.313,0,0.746,0.225,0.934,0.477c0.48,0.646,0.915,2.321,1.574,5.003c0.208,0.839,0.457,1.852,0.6,2.299    c0.392,0.175,1.259,0.486,1.978,0.743c3.843,1.377,4.834,1.846,5.014,2.764c0.066,0.344-0.109,0.846-0.369,1.08    c-0.781,0.699-4.496,2.079-6.444,2.772c-3.165,7.201-3.841,7.236-4.439,7.268C253.365,42.421,253.342,42.421,253.324,42.421z     M245.178,31.56c1.307,0.377,3.691,0.918,5.772,1.306c0.383,0.072,0.69,0.361,0.783,0.74c0.532,2.154,1.226,4.607,1.727,6.008    c0.725-1.305,1.822-3.613,2.712-5.653c0.111-0.254,0.321-0.45,0.581-0.541c1.778-0.625,3.785-1.393,5.034-1.94    c-0.874-0.368-2.065-0.796-2.836-1.071c-2.197-0.788-2.611-0.958-2.893-1.338c-0.247-0.331-0.4-0.884-0.946-3.103    c-0.206-0.834-0.521-2.115-0.8-3.073c-0.651,1.243-1.562,3.358-2.271,5.23c-0.099,0.26-0.303,0.468-0.561,0.571    C249.17,29.618,246.552,30.793,245.178,31.56z"/>
	</g>
	<g>
		<path style="fill:#241726;" d="M167.977,227.386h-0.029c-3.792-0.016-6.864-3.114-6.848-6.909    c0.016-3.777,3.101-6.848,6.877-6.848c1.867,0.008,3.592,0.73,4.886,2.036c1.292,1.304,2.001,3.035,1.993,4.871    C174.839,224.312,171.752,227.386,167.977,227.386z M167.998,215.618c-2.706,0-4.898,2.184-4.909,4.867    c-0.012,2.697,2.172,4.9,4.867,4.911l0,0h0.021c2.683,0,4.876-2.184,4.89-4.869c0.006-1.306-0.497-2.535-1.418-3.462    C170.53,216.137,169.304,215.624,167.998,215.618z"/>
	</g>
	<g>
		<path style="fill:#241726;" d="M362.366,357.016h-0.029c-3.792-0.016-6.864-3.114-6.848-6.909    c0.016-3.777,3.101-6.848,6.877-6.848c1.867,0.008,3.592,0.73,4.886,2.036c1.292,1.304,2.001,3.035,1.993,4.871    C369.228,353.943,366.141,357.016,362.366,357.016z M362.387,345.249c-2.706,0-4.898,2.184-4.909,4.867    c-0.012,2.697,2.172,4.9,4.867,4.911h0.021l0,0c2.683,0,4.876-2.184,4.89-4.869c0.006-1.306-0.497-2.535-1.418-3.462    C364.919,345.767,363.693,345.254,362.387,345.249z"/>
	</g>
	<g>
		<path style="fill:#241726;" d="M399.502,69.215h-0.029c-3.792-0.016-6.864-3.114-6.848-6.909c0.016-3.777,3.101-6.848,6.877-6.848    c1.867,0.008,3.592,0.73,4.886,2.036c1.292,1.304,2.001,3.035,1.993,4.871C406.364,66.141,403.277,69.215,399.502,69.215z     M399.523,57.447c-2.706,0-4.898,2.184-4.909,4.867c-0.012,2.697,2.172,4.9,4.867,4.911l0,0h0.021c2.683,0,4.876-2.184,4.89-4.869    c0.006-1.306-0.497-2.535-1.418-3.462C402.055,57.966,400.829,57.453,399.523,57.447z"/>
	</g>
	<g>
		<path style="fill:#241726;" d="M63.45,256.178c-0.066,0-0.13-0.006-0.196-0.019c-0.066-0.014-1.62-0.326-3.969-1.082    c-0.523-0.167-0.81-0.727-0.641-1.251c0.167-0.523,0.727-0.81,1.251-0.641c2.23,0.717,3.734,1.02,3.748,1.024    c0.54,0.109,0.888,0.631,0.781,1.17C64.328,255.851,63.914,256.178,63.45,256.178z M55.842,253.761    c-0.126,0-0.255-0.023-0.379-0.074c-1.274-0.525-2.518-1.098-3.697-1.706c-0.488-0.253-0.68-0.851-0.427-1.341    c0.253-0.488,0.855-0.68,1.341-0.427c1.127,0.581,2.318,1.131,3.542,1.632c0.507,0.21,0.75,0.791,0.542,1.3    C56.604,253.528,56.233,253.761,55.842,253.761z M48.778,250.093c-0.187,0-0.375-0.052-0.544-0.161    c-1.187-0.773-2.296-1.597-3.295-2.446c-0.42-0.356-0.47-0.983-0.115-1.401c0.356-0.42,0.985-0.472,1.401-0.115    c0.936,0.795,1.978,1.566,3.097,2.294c0.458,0.299,0.589,0.917,0.289,1.377C49.421,249.934,49.103,250.093,48.778,250.093z     M42.74,244.943c-0.276,0-0.552-0.115-0.748-0.34c-0.934-1.067-1.756-2.195-2.444-3.357c-0.282-0.472-0.124-1.082,0.348-1.362    c0.472-0.282,1.082-0.128,1.362,0.348c0.628,1.055,1.377,2.087,2.23,3.062c0.363,0.414,0.321,1.041-0.093,1.403    C43.206,244.861,42.973,244.943,42.74,244.943z M38.724,238.141c-0.412,0-0.797-0.258-0.94-0.668    c-0.451-1.3-0.771-2.664-0.954-4.055c-0.07-0.546,0.313-1.045,0.857-1.117c0.534-0.074,1.045,0.311,1.117,0.857    c0.163,1.259,0.455,2.491,0.861,3.662c0.179,0.519-0.095,1.086-0.614,1.267C38.942,238.124,38.833,238.141,38.724,238.141z     M37.683,230.316c-0.017,0-0.037,0-0.054-0.002c-0.55-0.031-0.969-0.499-0.938-1.047c0.074-1.315,0.26-2.691,0.558-4.09    c0.115-0.538,0.666-0.868,1.179-0.767c0.538,0.115,0.882,0.643,0.767,1.179c-0.276,1.3-0.451,2.574-0.519,3.786    C38.647,229.906,38.207,230.316,37.683,230.316z M39.307,222.552c-0.109,0-0.22-0.017-0.326-0.054    c-0.519-0.181-0.793-0.748-0.614-1.267c0.429-1.23,0.944-2.5,1.535-3.777c0.231-0.499,0.82-0.715,1.321-0.486    c0.499,0.231,0.715,0.822,0.486,1.321c-0.563,1.218-1.055,2.428-1.461,3.594C40.104,222.296,39.719,222.552,39.307,222.552z     M42.625,215.333c-0.167,0-0.334-0.041-0.488-0.128c-0.48-0.27-0.649-0.876-0.379-1.354c0.299-0.532,0.614-1.07,0.94-1.616    c0.392-0.649,0.787-1.263,1.189-1.848c0.311-0.451,0.931-0.567,1.383-0.256c0.453,0.311,0.567,0.929,0.256,1.383    c-0.379,0.554-0.754,1.137-1.123,1.745c-0.315,0.528-0.622,1.051-0.913,1.568C43.309,215.15,42.971,215.333,42.625,215.333z     M70.118,213.619c-0.678,0-1.395-0.084-2.133-0.249c-0.536-0.12-0.872-0.653-0.754-1.189c0.122-0.534,0.647-0.865,1.189-0.754    c1.276,0.286,2.419,0.266,3.396-0.058c0.519-0.177,1.084,0.111,1.257,0.631s-0.111,1.084-0.631,1.257    C71.719,213.497,70.936,213.619,70.118,213.619z M64.515,211.937c-0.163,0-0.326-0.039-0.48-0.122    c-1.135-0.624-2.291-1.403-3.437-2.318c-0.429-0.342-0.501-0.968-0.157-1.397c0.342-0.429,0.971-0.501,1.397-0.157    c1.059,0.843,2.122,1.558,3.157,2.127c0.48,0.266,0.657,0.87,0.392,1.352C65.204,211.75,64.864,211.937,64.515,211.937z     M75.196,210.95c-0.142,0-0.284-0.029-0.42-0.093c-0.499-0.231-0.715-0.824-0.482-1.321c0.136-0.293,0.206-0.612,0.206-0.946    c0-0.585-0.21-1.247-0.606-1.918c-0.282-0.472-0.124-1.082,0.348-1.362c0.472-0.28,1.084-0.124,1.362,0.348    c0.589,0.991,0.886,1.978,0.886,2.932c0,0.628-0.132,1.228-0.392,1.785C75.929,210.738,75.569,210.95,75.196,210.95z     M47.136,208.797c-0.233,0-0.466-0.082-0.657-0.247c-0.412-0.361-0.453-0.991-0.091-1.405c0.934-1.067,1.923-2.04,2.937-2.895    c0.42-0.348,1.047-0.299,1.403,0.12c0.354,0.42,0.299,1.047-0.12,1.403c-0.938,0.789-1.853,1.692-2.724,2.685    C47.688,208.683,47.412,208.797,47.136,208.797z M58.269,207.043c-0.258,0-0.515-0.099-0.709-0.297    c-0.933-0.95-1.84-1.98-2.702-3.062c-0.14-0.177-0.21-0.385-0.216-0.594c-0.315,0.157-0.626,0.324-0.933,0.501    c-0.478,0.27-1.086,0.111-1.358-0.367c-0.274-0.478-0.109-1.086,0.367-1.358c1.232-0.705,2.516-1.278,3.816-1.7    c0.523-0.167,1.084,0.117,1.253,0.639s-0.117,1.084-0.639,1.253c-0.274,0.089-0.548,0.187-0.822,0.289    c0.031,0.031,0.06,0.062,0.089,0.097c0.818,1.03,1.681,2.007,2.563,2.906c0.387,0.392,0.379,1.022-0.012,1.407    C58.772,206.948,58.519,207.043,58.269,207.043z M72.033,204.29c-0.204,0-0.41-0.062-0.587-0.192    c-0.967-0.707-2.065-1.302-3.264-1.768c-0.511-0.198-0.765-0.775-0.565-1.288c0.2-0.511,0.775-0.767,1.288-0.565    c1.36,0.528,2.609,1.206,3.715,2.017c0.445,0.324,0.54,0.946,0.216,1.389C72.641,204.148,72.338,204.29,72.033,204.29z     M64.701,201.401c-0.047,0-0.091-0.004-0.138-0.01c-1.238-0.169-2.465-0.206-3.74-0.087c-0.538,0.025-1.034-0.354-1.082-0.9    c-0.051-0.548,0.354-1.032,0.9-1.082c1.432-0.128,2.811-0.091,4.194,0.099c0.544,0.074,0.925,0.577,0.849,1.121    C65.616,201.04,65.189,201.401,64.701,201.401z M53.311,200.828c-0.324,0-0.643-0.159-0.833-0.453    c-0.746-1.144-1.438-2.327-2.057-3.516c-0.255-0.488-0.064-1.088,0.422-1.342c0.488-0.253,1.088-0.066,1.342,0.422    c0.591,1.133,1.249,2.261,1.96,3.353c0.299,0.46,0.169,1.076-0.291,1.375C53.686,200.776,53.497,200.828,53.311,200.828z     M49.635,193.781c-0.394,0-0.767-0.235-0.923-0.624c-0.519-1.292-0.96-2.598-1.311-3.88c-0.146-0.528,0.167-1.076,0.697-1.222    c0.526-0.136,1.076,0.167,1.222,0.697c0.33,1.208,0.748,2.44,1.238,3.662c0.204,0.511-0.043,1.09-0.552,1.294    C49.884,193.758,49.759,193.781,49.635,193.781z M47.546,186.113c-0.488,0-0.913-0.359-0.983-0.855    c-0.183-1.296-0.276-2.592-0.276-3.851l0.002-0.278c0.014-0.55,0.513-0.971,1.018-0.971c0.55,0.014,0.983,0.468,0.971,1.018    l-0.002,0.231c0,1.166,0.085,2.368,0.256,3.571c0.078,0.544-0.301,1.047-0.845,1.125C47.64,186.109,47.593,186.113,47.546,186.113    z M47.663,178.193c-0.06,0-0.122-0.006-0.185-0.017c-0.54-0.099-0.896-0.62-0.795-1.16c0.255-1.372,0.637-2.718,1.138-3.998    c0.2-0.513,0.775-0.767,1.288-0.565c0.513,0.2,0.765,0.777,0.565,1.288c-0.457,1.166-0.804,2.39-1.037,3.641    C48.551,177.858,48.131,178.193,47.663,178.193z M50.558,170.839c-0.185,0-0.371-0.051-0.536-0.157    c-0.462-0.295-0.598-0.911-0.301-1.374c0.732-1.144,1.593-2.246,2.559-3.274c0.373-0.404,1.004-0.42,1.405-0.045    c0.402,0.375,0.422,1.004,0.045,1.405c-0.882,0.94-1.667,1.945-2.333,2.986C51.205,170.678,50.884,170.839,50.558,170.839z     M86.87,170.025c-0.206,0-0.416-0.008-0.629-0.023c-0.55-0.039-0.962-0.515-0.923-1.063c0.041-0.55,0.565-0.971,1.063-0.923    c1.251,0.089,2.283-0.169,3.07-0.785c0.433-0.336,1.057-0.264,1.397,0.169c0.338,0.433,0.262,1.059-0.169,1.397    C89.652,169.602,88.335,170.025,86.87,170.025z M82.495,168.941c-0.136,0-0.276-0.027-0.408-0.087    c-1.185-0.532-2.397-1.238-3.602-2.096c-0.447-0.319-0.552-0.94-0.233-1.387c0.319-0.447,0.94-0.55,1.387-0.233    c1.1,0.783,2.197,1.422,3.264,1.902c0.501,0.225,0.725,0.814,0.499,1.315C83.237,168.723,82.874,168.941,82.495,168.941z     M91.892,165.592c-0.043,0-0.084-0.002-0.126-0.008c-0.544-0.068-0.931-0.565-0.863-1.111c0.027-0.223,0.041-0.453,0.041-0.684    c0-0.878-0.202-1.803-0.585-2.675c-0.22-0.503,0.008-1.09,0.511-1.311c0.503-0.216,1.092,0.008,1.311,0.511    c0.492,1.123,0.752,2.326,0.752,3.476c0,0.317-0.017,0.628-0.056,0.933C92.815,165.225,92.386,165.592,91.892,165.592z     M55.951,165.044c-0.297,0-0.591-0.132-0.787-0.387c-0.336-0.433-0.256-1.059,0.179-1.395c0.793-0.614,1.651-1.208,2.553-1.764    l0.841-0.517c0.47-0.282,1.082-0.134,1.366,0.336c0.284,0.47,0.134,1.08-0.336,1.366l-0.826,0.507    c-0.841,0.519-1.642,1.074-2.382,1.646C56.378,164.976,56.165,165.044,55.951,165.044z M76.002,164.399    c-0.247,0-0.495-0.091-0.688-0.276c-0.968-0.925-1.902-1.939-2.78-3.013c-0.348-0.425-0.286-1.051,0.14-1.399    c0.425-0.348,1.053-0.288,1.399,0.14c0.828,1.012,1.708,1.966,2.617,2.835c0.396,0.379,0.41,1.008,0.031,1.407    C76.525,164.296,76.265,164.399,76.002,164.399z M62.706,160.857c-0.354,0-0.697-0.19-0.876-0.525    c-0.26-0.486-0.078-1.088,0.406-1.346c1.251-0.67,2.458-1.267,3.621-1.795c0.501-0.221,1.09-0.008,1.317,0.493    c0.227,0.501,0.006,1.09-0.493,1.317c-1.129,0.513-2.296,1.09-3.505,1.737C63.026,160.82,62.865,160.857,62.706,160.857z     M88.916,158.539c-0.233,0-0.466-0.082-0.655-0.247c-0.872-0.762-1.916-1.375-3.103-1.822c-0.515-0.192-0.775-0.767-0.581-1.28    c0.192-0.517,0.771-0.783,1.28-0.581c1.412,0.53,2.662,1.267,3.713,2.188c0.414,0.361,0.457,0.989,0.093,1.403    C89.468,158.425,89.192,158.539,88.916,158.539z M70.978,158.25c-0.328,0-0.651-0.163-0.841-0.462    c-0.043-0.068-0.085-0.138-0.128-0.206c-0.427,0.045-0.841-0.229-0.993-0.655c-0.111-0.301-0.064-0.622,0.095-0.872    c-0.338-0.616-0.657-1.236-0.948-1.859c-0.235-0.497-0.021-1.09,0.476-1.323c0.499-0.233,1.09-0.019,1.323,0.476    c0.293,0.624,0.612,1.243,0.954,1.857c0.884-0.288,1.754-0.538,2.597-0.746c0.532-0.134,1.072,0.194,1.205,0.727    c0.132,0.534-0.194,1.072-0.727,1.205c-0.67,0.165-1.36,0.359-2.059,0.579c0.124,0.416-0.037,0.882-0.422,1.127    C71.345,158.199,71.161,158.25,70.978,158.25z M77.667,155.724c-0.503,0-0.934-0.381-0.987-0.894    c-0.056-0.546,0.34-1.034,0.888-1.09c1.51-0.153,2.889-0.159,4.16-0.049c0.546,0.049,0.95,0.532,0.901,1.08    c-0.049,0.548-0.548,0.929-1.08,0.901c-1.15-0.105-2.407-0.095-3.779,0.045C77.737,155.722,77.702,155.724,77.667,155.724z     M67.61,151.066c-0.424,0-0.816-0.272-0.95-0.697c-0.418-1.333-0.734-2.685-0.938-4.016c-0.084-0.544,0.289-1.051,0.832-1.135    c0.558-0.082,1.051,0.289,1.135,0.832c0.19,1.234,0.484,2.487,0.872,3.724c0.163,0.523-0.128,1.082-0.653,1.247    C67.808,151.052,67.709,151.066,67.61,151.066z M66.43,143.234c-0.006,0-0.012,0-0.017,0c-0.55-0.01-0.987-0.462-0.977-1.012    c0.025-1.395,0.177-2.784,0.449-4.13c0.109-0.538,0.628-0.89,1.173-0.777c0.538,0.109,0.886,0.635,0.777,1.173    c-0.249,1.228-0.387,2.496-0.41,3.769C67.415,142.801,66.972,143.234,66.43,143.234z M68.006,135.482    c-0.124,0-0.251-0.023-0.373-0.072c-0.509-0.208-0.756-0.787-0.55-1.296c0.515-1.267,1.152-2.508,1.896-3.691    c0.293-0.464,0.909-0.606,1.372-0.311c0.464,0.291,0.604,0.905,0.311,1.372c-0.68,1.082-1.265,2.219-1.733,3.377    C68.771,135.247,68.398,135.482,68.006,135.482z M72.191,128.76c-0.231,0-0.462-0.08-0.651-0.243    c-0.416-0.359-0.46-0.987-0.101-1.403c0.865-0.999,1.838-1.98,2.889-2.916c0.406-0.361,1.036-0.328,1.405,0.084    c0.363,0.41,0.328,1.039-0.084,1.405c-0.987,0.878-1.898,1.795-2.706,2.73C72.746,128.644,72.468,128.76,72.191,128.76z     M78.104,123.464c-0.309,0-0.616-0.146-0.81-0.418c-0.319-0.447-0.214-1.069,0.233-1.387c0.602-0.429,1.232-0.853,1.888-1.271    c0.46-0.289,1.076-0.159,1.374,0.309c0.293,0.464,0.155,1.078-0.309,1.374c-0.626,0.394-1.224,0.798-1.799,1.208    C78.507,123.404,78.305,123.464,78.104,123.464z"/>
	</g>
	<g>
		<g>
			<path style="fill:#55B2AA;" d="M339.975,491.26c0,0-58.356,0-86.208-31.831s-25.199,1.326-11.936,17.242     s-21.22-5.305-39.788-39.788s-26.525,14.589-10.61,37.136c15.915,22.547-30.504-37.136-47.746-47.746     c-17.242-10.61-20.557,19.231,3.979,59.682c23.396,38.572,68.966,19.894,128.649,25.199     C335.997,516.459,359.87,495.239,339.975,491.26z"/>
		</g>
		<g>
			<path style="fill:#241726;" d="M261.534,502.77c-0.118,0-0.241-0.004-0.365-0.01c-8.966-0.431-40.909-16.595-46.784-31.018     c-1.815-4.453-3.138-4.567-3.353-4.618c-0.54,0.019-1.451,0.901-2.24,3.318c-2.112,6.481-1.719,18.862,3.149,22.688     c0.484,0.381,1.952,1.535,1.443,2.821c-0.414,1.041-1.764,1.403-4.365,1.164c-10.431-0.946-39.483-11.459-43.097-29.532     c-1.002-5.01-2.368-6.417-3.017-6.46c-0.012,0-0.023-0.002-0.033-0.002c-0.631,0-1.667,1.096-2.493,3.538     c-2.275,6.726-2.405,23.657,11.711,33.068c0.457,0.305,0.581,0.923,0.276,1.379c-0.307,0.458-0.925,0.577-1.379,0.276     c-13.763-9.176-15.591-26.202-12.492-35.361c1.102-3.264,2.656-5.022,4.538-4.884c2.17,0.14,3.798,2.85,4.839,8.057     c2.46,12.3,18.095,20.246,24.704,23.092c9.487,4.086,16.706,5.162,18.664,4.874c-0.119-0.122-0.288-0.276-0.528-0.464     c-5.791-4.552-6.126-17.769-3.812-24.87c1.238-3.8,2.891-4.647,4.058-4.69c1.91-0.132,3.633,1.846,5.267,5.856     c4.921,12.078,30.748,26.441,42.32,29.32c2.998,0.748,3.804,0.377,3.903,0.326c-0.029-0.025-0.068-0.457-0.851-1.48     c-5.366-7.015-8.921-19.35-5.207-22.352c2.716-2.191,7.66,0.9,14.713,9.166c18.517,21.714,46.322,10.454,46.605,10.34     c0.501-0.212,1.088,0.025,1.3,0.534c0.212,0.505-0.027,1.088-0.532,1.3c-0.293,0.122-29.408,11.956-48.888-10.883     c-6.918-8.109-10.765-9.869-11.946-8.908c-2.306,1.863,0.26,12.698,5.537,19.595c0.429,0.561,1.735,2.269,1.014,3.645     C263.784,502.375,262.89,502.77,261.534,502.77z"/>
		</g>
	</g>
</g>















</svg>
